<svg width="16" height="16" viewBox="0 0 16 16" fill="none" xmlns="http://www.w3.org/2000/svg">
<circle cx="7.875" cy="7.875" r="7.875" fill="#006C35"/>
<path d="M3.41914 5.66693C3.72317 5.6958 3.55528 5.15266 3.66545 5.05404C3.68613 5.00546 3.72462 5.00497 3.7275 5.06655V5.52742C3.72462 5.67752 3.82324 5.72129 3.89973 5.75256C3.97959 5.74631 4.03251 5.7492 4.06378 5.82665L4.1013 6.62427C4.1013 6.62427 4.28603 6.67719 4.29469 6.17543C4.30383 5.88101 4.236 5.6347 4.27593 5.57745C4.27737 5.52117 4.34905 5.5178 4.39909 5.54522C4.47846 5.60103 4.51406 5.6703 4.63722 5.64288C4.82532 5.5914 4.93789 5.5 4.94078 5.35568C4.92971 5.21857 4.91432 5.08147 4.85514 4.94436C4.86332 4.91934 4.81906 4.85488 4.82724 4.82986C4.86092 4.88278 4.91239 4.87845 4.92394 4.82986C4.89219 4.72451 4.84264 4.62348 4.76182 4.5797C4.69543 4.52101 4.59825 4.53304 4.56265 4.65523C4.54629 4.79571 4.61365 4.96312 4.71563 5.09926C4.73728 5.15266 4.76807 5.24118 4.7546 5.32104C4.70024 5.35183 4.6454 5.33932 4.60017 5.29121C4.60017 5.29121 4.45056 5.17912 4.45056 5.15411C4.49049 4.9001 4.4597 4.87124 4.43757 4.801C4.42218 4.70382 4.37599 4.67255 4.33847 4.60616C4.30095 4.56671 4.25043 4.56671 4.22638 4.60616C4.15999 4.72066 4.19078 4.96697 4.23889 5.07714C4.27304 5.17816 4.32596 5.24214 4.30095 5.24214C4.28026 5.29939 4.23793 5.28592 4.20714 5.22001C4.16288 5.08339 4.15422 4.87989 4.15422 4.78801C4.14075 4.67448 4.12632 4.43153 4.05175 4.36995C4.00605 4.3079 3.93822 4.33772 3.91464 4.39497C3.90983 4.50754 3.90887 4.6206 3.92186 4.72499C3.97285 4.90732 3.98921 5.068 4.01423 5.25513C4.02096 5.50577 3.86942 5.36386 3.87616 5.23974C3.91128 5.07858 3.90213 4.82457 3.87086 4.76011C3.84633 4.69612 3.81698 4.67977 3.75733 4.69035C3.71019 4.6865 3.58799 4.82024 3.55336 5.04154C3.55336 5.04154 3.52401 5.15555 3.5115 5.25706C3.49466 5.37155 3.41962 5.45237 3.3667 5.24118C3.321 5.08772 3.29309 4.70911 3.2166 4.79763C3.19447 5.09349 3.16801 5.61402 3.41914 5.66693Z" fill="white"/>
<path d="M3.87636 5.88306C3.6262 5.88787 3.2601 6.21163 3.25 6.39107C3.51363 6.26407 3.77293 6.14188 4.04137 6.01102C3.99807 5.94608 4.03896 5.88787 3.87636 5.88306Z" fill="white"/>
<path d="M5.25415 6.85324C5.37009 6.46693 5.23539 6.18214 5.29841 6.18358C5.43166 6.32742 5.61832 6.20282 5.65921 6.15279C5.67701 6.12777 5.72079 6.11142 5.75158 6.14413C5.85597 6.21918 6.03974 6.18358 6.07775 6.05177C6.10178 5.91937 6.11657 5.78547 6.12201 5.65103C6.03686 5.67749 5.97335 5.69529 5.96758 5.73041L5.94978 5.8449C5.94257 5.88195 5.86896 5.88339 5.86607 5.83624C5.83384 5.68952 5.7001 5.67027 5.61928 5.89782C5.56492 5.94208 5.46678 5.95074 5.4562 5.88483C5.46919 5.73233 5.40761 5.71164 5.28445 5.78332C5.24501 5.48073 5.20508 5.1916 5.16563 4.88901C5.2171 4.88756 5.26425 4.92557 5.31091 4.86688C5.25944 4.70668 5.15072 4.37955 5.09058 4.35598C5.06124 4.32038 5.03622 4.3425 4.99821 4.35165C4.93375 4.37233 4.87362 4.42814 4.89238 4.53638C4.96887 5.00062 5.0189 5.35421 5.09491 5.81844C5.10646 5.8728 5.06124 5.94449 5.00254 5.93727C4.90296 5.86992 4.87795 5.73329 4.70765 5.73907C4.58401 5.74051 4.44305 5.87425 4.42574 6.00366C4.40505 6.10613 4.39783 6.21774 4.42574 6.3077C4.51233 6.41161 4.61672 6.40151 4.70765 6.37793C4.78221 6.34714 4.84427 6.2721 4.87025 6.2899C4.88805 6.31155 4.87458 6.55834 4.5181 6.74788C4.3021 6.84458 4.13036 6.86671 4.03799 6.69063C3.98074 6.58047 4.04232 6.16193 3.90136 6.25911C3.48427 7.33431 4.87795 7.48344 5.03381 6.30337C5.04873 6.25478 5.10742 6.20619 5.11752 6.28557C5.08529 7.35452 4.03943 7.42812 3.86192 7.09185C3.81766 7.01247 3.80467 6.8364 3.80034 6.73056C3.77388 6.52033 3.66371 6.60115 3.64639 6.80946C3.62859 6.9254 3.6334 6.95811 3.6334 7.06924C3.68873 7.91353 5.03574 7.5508 5.25415 6.85324ZM4.73459 6.12296C4.72593 6.13932 4.68792 6.13259 4.66002 6.13259C4.62827 6.13114 4.61335 6.12585 4.59411 6.10035C4.58545 6.07149 4.61239 6.04407 4.62442 6.02242C4.63933 5.99692 4.71967 5.97046 4.74806 6.04166C4.75331 6.05518 4.75483 6.06985 4.75246 6.08416C4.75009 6.09846 4.74392 6.11187 4.73459 6.12296Z" fill="white"/>
<path d="M5.67205 5.16636C5.75576 5.13558 6.15265 4.68192 6.15265 4.68192C6.13196 4.66412 6.11368 4.65113 6.093 4.63333C6.07087 4.61409 6.07327 4.59485 6.093 4.57609C6.19113 4.51884 6.15986 4.39328 6.10839 4.33603C6.0751 4.3197 6.03845 4.31136 6.00136 4.3117C5.96428 4.31203 5.92779 4.32102 5.89479 4.33795C5.826 4.40386 5.80964 4.5097 5.864 4.57609C5.91692 4.6011 5.96984 4.6545 5.93472 4.68385C5.7726 4.85703 5.32809 5.15578 5.37956 5.16636C5.39063 5.1808 5.6634 5.18032 5.67205 5.16636ZM5.96599 4.45389C5.99149 4.44764 6.0242 4.47025 6.0396 4.50392C6.05499 4.5376 6.04681 4.56983 6.0218 4.57609H6.02083C5.99582 4.58234 5.9631 4.55973 5.94771 4.52605C5.9328 4.4919 5.94098 4.46015 5.96599 4.45389ZM3.39176 7.21045C3.32633 7.34371 3.29891 7.25231 3.29314 7.17774C3.28562 7.05251 3.29191 6.92683 3.3119 6.80298C3.32826 6.69715 3.3119 6.72938 3.27822 6.77219C3.12957 7.00888 3.11658 7.36295 3.19885 7.46831C3.24214 7.51834 3.31382 7.54047 3.36722 7.52411C3.46055 7.4837 3.50144 7.29416 3.47931 7.22537C3.44756 7.17678 3.42303 7.16908 3.39176 7.21045ZM8.28958 4.70501C8.46085 4.93497 8.62345 5.16925 8.78269 5.40786C8.81396 5.61473 8.83657 5.81678 8.85004 6.01739C8.8765 6.40417 8.88419 6.82271 8.86014 7.23018C8.9323 7.23306 9.0492 7.1128 9.08961 6.9372C9.11607 6.69426 9.07999 6.26177 9.07758 6.11841C9.0744 6.02856 9.07007 5.93875 9.0646 5.84901C9.25414 6.15882 9.43887 6.48307 9.61928 6.84339C9.68518 6.8126 9.67075 6.4441 9.63226 6.39214C9.48794 6.08281 9.28926 5.77685 9.22576 5.65947C9.20218 5.61617 9.12184 5.49302 9.02611 5.35206C9.01789 5.23956 9.00441 5.12751 8.9857 5.01627C8.95587 4.81037 9.07085 5.03888 9.05498 4.91909C9.01793 4.71319 8.90344 4.57416 8.7697 4.38558C8.7264 4.32448 8.72784 4.31198 8.66097 4.40049C8.63734 4.45352 8.62646 4.51136 8.62922 4.56935C8.60834 4.53865 8.58603 4.50895 8.56235 4.48035C8.48975 4.41771 8.41679 4.35549 8.34346 4.29369C8.29488 4.25906 8.17653 4.19652 8.15536 4.30043C8.14551 4.37327 8.1491 4.44729 8.16595 4.51884C8.17846 4.57031 8.25302 4.65594 8.28958 4.70501ZM8.64558 4.69347C8.65472 4.7334 8.66434 4.77333 8.6706 4.81422L8.67781 4.85318C8.65763 4.82498 8.63661 4.79739 8.61479 4.77044C8.53589 4.67711 8.60132 4.69732 8.64558 4.69347Z" fill="white"/>
<path d="M9.67649 6.93858C9.50907 7.11321 9.26757 7.32825 9.0049 7.42783C8.97652 7.45958 9.07514 7.59572 9.20215 7.59572C9.41526 7.57071 9.60288 7.45092 9.77655 7.13582C9.82321 7.06269 9.905 6.90538 9.90692 6.78319C9.9228 6.06831 9.87132 5.51171 9.76404 4.99503C9.75686 4.95357 9.75883 4.91105 9.76981 4.87043C9.78328 4.85408 9.83043 4.87043 9.85545 4.83002C9.89153 4.7925 9.75875 4.48461 9.68274 4.36627C9.6558 4.31335 9.64666 4.27775 9.60192 4.37252C9.55477 4.44949 9.5235 4.58371 9.52735 4.70879C9.62886 5.41261 9.66013 6.02886 9.72652 6.73267C9.73181 6.80051 9.72171 6.89961 9.67649 6.93858ZM12.4812 5.15379C12.4739 5.10375 12.4518 4.98733 12.4605 4.97242C12.4739 4.93682 12.5437 4.97627 12.5687 4.93538C12.6053 4.89834 12.3888 4.62027 12.3133 4.50193C12.2858 4.44901 12.2767 4.41341 12.232 4.50818C12.1848 4.58516 12.1685 4.72322 12.1872 4.84446C12.3003 5.60888 12.3845 6.18329 12.4018 6.86112C12.3917 6.92559 12.3897 6.96022 12.3594 7.04104C12.2926 7.12668 12.219 7.23347 12.1492 7.28543C12.0799 7.33691 11.9322 7.38646 11.8837 7.42446C11.7312 7.51346 11.7307 7.61497 11.8548 7.61834C12.0674 7.59332 12.3195 7.576 12.4932 7.31333C12.5398 7.24021 12.5952 7.04153 12.5976 6.91933C12.6134 6.20445 12.5884 5.67046 12.4812 5.15379ZM10.8691 5.74888C10.871 5.65074 10.8801 5.52085 10.8854 5.43955C10.8878 5.40924 10.895 5.37508 10.9239 5.36738C10.9533 5.35969 11.0052 5.39721 11.0057 5.36546C10.9999 5.3034 10.9874 5.21103 10.9523 5.16726C10.9042 5.09606 10.7767 5.11338 10.7541 5.22499C10.7546 5.26636 10.7733 5.28849 10.77 5.32601C10.7642 5.34718 10.7421 5.36161 10.6896 5.3366C10.6983 5.3289 10.6555 5.26973 10.6555 5.26973C10.6146 5.24471 10.5597 5.27117 10.5246 5.29378C10.5119 5.31804 10.5043 5.34465 10.5023 5.37196C10.5004 5.39927 10.504 5.4267 10.5131 5.45253C10.5708 5.56174 10.7724 5.74695 10.8691 5.74888Z" fill="white"/>
<path d="M10.7987 4.91229C10.9397 5.085 11.0835 5.26011 11.2283 5.43811C11.2596 5.83548 11.2677 6.16068 11.2985 6.55805C11.2942 6.72643 11.2422 6.87315 11.1927 6.89432C11.1927 6.89432 11.1181 6.93762 11.0681 6.88999C11.0315 6.87508 10.8858 6.64705 10.8858 6.64705C10.8112 6.57874 10.7621 6.59798 10.7092 6.64705C10.563 6.788 10.4971 7.0526 10.398 7.23444C10.372 7.27533 10.2998 7.30997 10.2195 7.23156C10.016 6.95301 10.1353 6.55709 10.1103 6.65908C9.92891 6.86353 10.0088 7.20173 10.0497 7.27485C10.1093 7.39416 10.1579 7.47113 10.2743 7.5303C10.3802 7.60824 10.4629 7.55917 10.5081 7.50481C10.6149 7.39368 10.6164 7.11225 10.6664 7.05548C10.701 6.95301 10.79 6.97033 10.8329 7.01603C10.8721 7.07137 10.924 7.11642 10.9844 7.14737C11.084 7.2354 11.2028 7.25128 11.3197 7.17094C11.3996 7.1262 11.452 7.06799 11.4987 6.95301C11.5506 6.81446 11.5222 6.17752 11.5116 5.79555C11.5862 5.89176 11.6589 5.99231 11.7325 6.09285C11.7647 6.4118 11.783 6.72931 11.7724 7.05356C11.7647 7.1185 11.9985 6.86113 11.9966 6.73893C11.9956 6.64031 11.9966 6.55083 11.9966 6.46665C12.1091 6.63598 12.2188 6.81062 12.3218 6.99535C12.3862 6.96167 12.3651 6.59846 12.3242 6.54843C12.2054 6.34926 12.0471 6.14192 11.9379 5.99375C11.9307 5.97499 11.9268 5.95382 11.9182 5.93602C11.8744 5.83451 11.9018 5.75273 11.8811 5.64497C11.8609 5.53673 11.8662 5.37509 11.8349 5.24664C11.8263 5.19661 11.8003 5.03593 11.808 5.02102C11.8205 4.98494 11.8686 5.02198 11.8922 4.98061C11.9273 4.94212 11.7705 4.53561 11.6906 4.41919C11.6617 4.36723 11.6098 4.38503 11.5453 4.4697C11.4862 4.52551 11.5083 4.65251 11.5309 4.77326C11.5872 5.06576 11.6343 5.34622 11.6747 5.6238C11.5882 5.50879 11.5008 5.39445 11.4125 5.2808L11.4087 5.25963C11.4087 5.25434 11.3957 5.00755 11.3842 4.94885C11.3822 4.92528 11.3765 4.91807 11.4015 4.92095C11.4279 4.94308 11.4313 4.94452 11.4481 4.95222C11.4751 4.95703 11.4987 4.91133 11.4828 4.86948L11.2341 4.41149C11.2143 4.39177 11.1884 4.3706 11.1571 4.41679C11.1377 4.43374 11.1221 4.45467 11.1115 4.47816C11.1009 4.50165 11.0954 4.52715 11.0955 4.55293C11.1032 4.66117 11.122 4.77182 11.1292 4.88054L11.1398 4.93923C11.1287 4.92624 11.1152 4.90989 11.1095 4.90411C10.8983 4.68186 11.2066 4.86803 11.0691 4.69629C10.9526 4.56832 10.919 4.52839 10.8189 4.45142C10.7689 4.41919 10.7386 4.35761 10.7222 4.46249C10.714 4.55445 10.7116 4.64684 10.715 4.73911C10.715 4.78336 10.7597 4.86419 10.7987 4.91229ZM6.51665 5.43137C6.63788 5.4814 6.71533 5.25049 6.76536 4.99744C6.79904 4.92624 6.82502 4.91855 6.84233 4.95511C6.838 5.29186 6.86639 5.36643 6.95298 5.4689C7.14589 5.61803 7.30561 5.48766 7.3186 5.47515L7.46869 5.32506C7.50189 5.28994 7.54663 5.28753 7.59377 5.3188C7.63996 5.36017 7.6337 5.43234 7.73184 5.48237C7.81459 5.51556 7.99162 5.49006 8.03251 5.41887C8.08784 5.32457 8.10131 5.29186 8.12632 5.25626C8.16577 5.20382 8.23312 5.2274 8.23312 5.24375C8.22687 5.2731 8.18742 5.30244 8.21436 5.35488C8.26151 5.39 8.27209 5.36739 8.29999 5.35969C8.39813 5.31255 8.47125 5.09991 8.47125 5.09991C8.47558 5.02053 8.43132 5.02727 8.40246 5.04363C8.36494 5.06624 8.36253 5.07393 8.32501 5.09703C8.2769 5.10424 8.18405 5.13599 8.13835 5.06479C8.0912 4.97916 8.09024 4.85986 8.05464 4.77374C8.05464 4.76749 7.9921 4.6376 8.05031 4.62942C8.07966 4.63471 8.14172 4.65107 8.15182 4.59911C8.18213 4.54812 8.08591 4.40283 8.02049 4.32923C7.96324 4.26669 7.88386 4.25899 7.80737 4.32298C7.75349 4.37253 7.76119 4.42737 7.7506 4.47981C7.74186 4.51681 7.74188 4.55534 7.75065 4.59234C7.75942 4.62934 7.7767 4.66378 7.80112 4.69292C7.85452 4.79828 7.95217 4.93442 7.91994 5.12493C7.91994 5.12493 7.86318 5.21537 7.76359 5.20382C7.72222 5.19468 7.65487 5.17688 7.61927 4.91229C7.59233 4.71168 7.62601 4.43122 7.54086 4.29988C7.51007 4.22051 7.48794 4.14402 7.41289 4.27968C7.39268 4.33308 7.30609 4.4139 7.36911 4.58083C7.42059 4.68619 7.44127 4.85793 7.41818 5.0494C7.38258 5.10376 7.37488 5.12204 7.32822 5.1764C7.26279 5.24664 7.19208 5.22884 7.13771 5.20238C7.08672 5.16822 7.04727 5.15043 7.02418 5.0417C7.02851 4.86851 7.03813 4.58468 7.00638 4.52455C6.95972 4.43122 6.88274 4.46489 6.84955 4.49328C6.69128 4.63808 6.61334 4.88199 6.56572 5.07586C6.52194 5.21729 6.47527 5.17688 6.44256 5.11964C6.3627 5.04459 6.35741 4.45912 6.26071 4.55582C6.10533 4.99552 6.34827 5.47852 6.51665 5.43137Z" fill="white"/>
<path d="M8.81373 6.37605L8.76755 6.34959L7.86264 6.34526C7.81598 6.32746 7.82993 6.31206 7.86264 6.29956C8.07865 6.27021 8.46303 6.20767 8.48852 5.83869C8.48419 5.64674 8.40578 5.5207 8.17005 5.48606C7.99734 5.49953 7.87371 5.66742 7.89343 5.85168C7.88525 5.90171 7.90979 5.99888 7.85928 6.00995C7.52685 6.04026 7.1646 6.24808 7.15258 6.39722C7.13237 6.41117 7.08715 6.37076 7.09292 6.30725C7.07691 6.03562 6.99873 5.77129 6.86441 5.53465C6.75954 5.42977 6.79225 5.46441 6.72201 5.51396C6.67679 5.56592 6.66862 5.60152 6.67102 5.70495C6.67102 5.7088 6.75569 5.945 6.82737 6.11049C6.875 6.28031 6.91974 6.47419 6.8875 6.65748C6.77589 6.89994 6.55123 7.11738 6.33475 7.23525C6.22314 7.27133 6.12741 7.25834 6.10383 7.23332C6.03504 7.18714 6.03841 7.10199 6.0437 7.10055C6.22603 6.97306 6.43481 6.87059 6.59838 6.52759C6.64649 6.39673 6.66092 6.31736 6.61329 6.11482C6.60006 6.04345 6.56725 5.97716 6.51852 5.92336C6.54787 5.90411 6.63205 5.9681 6.64504 5.93009C6.62065 5.81923 6.56546 5.71751 6.48581 5.63664C6.42086 5.57746 6.35014 5.57073 6.29049 5.62509C6.22314 5.66261 6.20871 5.79635 6.24094 5.91373C6.27654 6.00225 6.37324 6.01717 6.44251 6.19468C6.44251 6.19853 6.46753 6.32746 6.43193 6.37797C6.40354 6.46649 6.03552 6.75562 6.01532 6.76861C6.00521 6.78111 6.00954 6.76235 6.0081 6.71424C6.00569 6.65555 6.03167 6.517 6.02446 6.51604C5.90467 6.59349 5.86474 6.83066 5.84309 6.9009C5.54001 7.11017 5.19701 7.26604 4.9988 7.47867C4.89537 7.63983 5.70983 7.29346 5.8046 7.2516C5.82577 7.267 5.82337 7.33964 5.88013 7.40459C5.9648 7.51908 6.14376 7.5898 6.31935 7.54602C6.61281 7.4397 6.78263 7.23958 6.95486 7.0178C6.97939 6.98172 7.01788 6.9543 7.05348 6.98172C7.17182 7.24679 7.51386 7.43441 7.95501 7.45414C8.05748 7.32954 8.00793 7.2694 7.96656 7.24343C7.96656 7.23958 7.74863 7.15683 7.71544 7.07409C7.69523 6.99904 7.7443 6.93313 7.84244 6.8831C8.12579 6.84894 8.40433 6.81094 8.67422 6.72435C8.6771 6.6339 8.72954 6.49824 8.76562 6.43955C8.80026 6.3799 8.81902 6.3977 8.81373 6.37605ZM8.06951 5.81223C8.08298 5.78962 8.12772 5.79058 8.16957 5.81511C8.21142 5.83917 8.235 5.87765 8.22105 5.90026C8.20758 5.92336 8.16235 5.92191 8.1205 5.89738C8.07865 5.87332 8.05604 5.83532 8.06951 5.81223ZM7.70533 6.72627C7.60816 6.75947 7.51483 6.78544 7.51483 6.92592C7.55091 7.12123 7.46528 7.05436 7.41476 7.02742C7.35511 6.98461 7.18721 6.88118 7.16316 6.65796C7.15931 6.60456 7.20117 6.55982 7.26803 6.55982C7.36858 6.58724 7.51723 6.58916 7.64616 6.60263C7.75152 6.60937 7.80395 6.69211 7.70533 6.72627ZM4.35368 4.55903C4.45759 4.60906 4.65387 4.58789 4.64521 4.41952C4.64521 4.4046 4.64136 4.35457 4.63992 4.3411C4.61875 4.29155 4.56103 4.30358 4.54756 4.35505C4.54323 4.37189 4.55477 4.39883 4.53986 4.40749C4.5312 4.41615 4.498 4.41086 4.49945 4.36467C4.49945 4.34976 4.48838 4.33388 4.48213 4.32474C4.47539 4.32041 4.47155 4.31897 4.45952 4.31897C4.44509 4.31945 4.44509 4.3233 4.43739 4.33581C4.43402 4.34784 4.42921 4.36034 4.42921 4.37429C4.42729 4.39065 4.42103 4.39642 4.40901 4.39931C4.39554 4.39931 4.39842 4.40075 4.38784 4.39354C4.3811 4.38632 4.37292 4.38343 4.37292 4.37141C4.37288 4.35735 4.37061 4.34338 4.36619 4.33004C4.36042 4.32234 4.35128 4.31897 4.34069 4.31608C4.28393 4.31608 4.28008 4.38103 4.28344 4.40605C4.27815 4.41037 4.27623 4.52679 4.35368 4.55903Z" fill="white"/>
<path d="M7.55033 5.65608C7.55033 5.64117 7.53927 5.62577 7.53301 5.61615C7.52628 5.61182 7.52243 5.61038 7.5104 5.61038C7.49597 5.61086 7.49645 5.61471 7.48827 5.62722C7.48491 5.63972 7.4801 5.65175 7.4801 5.6657C7.47865 5.68254 7.47192 5.68831 7.45989 5.69072C7.44642 5.69072 7.44931 5.69216 7.43824 5.68543C7.43151 5.67821 7.42333 5.67532 7.42333 5.6633C7.42333 5.64923 7.42106 5.63526 7.41659 5.62192C7.41082 5.61423 7.40168 5.61086 7.3911 5.60845C7.33433 5.60845 7.33048 5.6734 7.33337 5.69793C7.32904 5.70274 7.32663 5.81868 7.40409 5.8514C7.50848 5.90095 7.75623 5.87208 7.69562 5.71188C7.6946 5.68554 7.69284 5.65923 7.69033 5.63299C7.66916 5.58344 7.61095 5.59595 7.59796 5.64694C7.59411 5.66378 7.60566 5.69072 7.59026 5.69938C7.58257 5.70804 7.54889 5.70274 7.55033 5.65608ZM9.18455 5.31596C9.28846 5.36599 9.48426 5.34482 9.4756 5.17693C9.47458 5.15058 9.47282 5.12428 9.4703 5.09803C9.44914 5.04848 9.39141 5.06099 9.37842 5.11198C9.37409 5.12882 9.38563 5.15576 9.37024 5.16442C9.36158 5.17308 9.32839 5.16827 9.32983 5.12161C9.32983 5.10669 9.31877 5.09082 9.31251 5.08168C9.30578 5.07735 9.30193 5.0759 9.28942 5.0759C9.27499 5.07687 9.27547 5.08023 9.26729 5.09274C9.26392 5.10525 9.25911 5.11728 9.25911 5.13123C9.25719 5.14806 9.25093 5.15384 9.23891 5.15624C9.22544 5.15624 9.22832 5.15769 9.21726 5.15095C9.21052 5.14373 9.20283 5.14085 9.20283 5.12882C9.20278 5.1146 9.20051 5.10048 9.19609 5.08697C9.18984 5.07927 9.18118 5.0759 9.17011 5.0735C9.11335 5.0735 9.1095 5.13844 9.11287 5.16298C9.1095 5.16779 9.10709 5.28373 9.18455 5.31596ZM9.25478 4.66555C9.29183 4.76946 9.2264 4.86856 9.26537 4.88299C9.30048 4.89935 9.35052 4.77571 9.3688 4.6617C9.39045 4.56933 9.32454 4.38027 9.23121 4.3413C9.17444 4.32783 9.09362 4.36151 9.1196 4.43752C9.10661 4.47408 9.2341 4.5982 9.25478 4.66555ZM10.2145 7.10171C10.2872 7.10219 10.3709 6.93574 10.4065 6.77073C10.4262 6.54366 10.393 6.40559 10.3872 6.27186C10.381 6.1386 10.2367 5.12112 10.2068 5.0201C10.1717 4.82911 10.3478 4.9946 10.3285 4.88347C10.2674 4.74348 10.1159 4.53999 10.0678 4.41827C10.0389 4.36632 10.0514 4.32013 9.98698 4.4048C9.92781 4.59964 9.90712 4.75839 9.92973 4.87962C10.0827 5.67821 10.2395 6.34209 10.2145 7.10171ZM12.0214 5.01384C12.0383 5.0658 11.9959 5.2337 12.0311 5.24909C12.0633 5.26641 12.1085 5.13315 12.1254 5.00951C12.1345 4.94168 12.0849 4.70499 11.9998 4.66266C11.9478 4.64823 11.8742 4.68431 11.8983 4.76705C11.8863 4.80698 12.0027 4.94072 12.0214 5.01384ZM5.71022 6.77265C5.74149 6.78564 5.78431 6.6875 5.80066 6.59658C5.8098 6.54655 5.7617 6.37288 5.68039 6.34161C5.63036 6.33103 5.56205 6.3445 5.58322 6.41858C5.58081 6.45851 5.69386 6.50662 5.7006 6.59947C5.71696 6.63795 5.67655 6.76159 5.71022 6.77265ZM3.51844 4.55249C3.53432 4.59242 3.50257 4.71991 3.53576 4.73193C3.56607 4.7454 3.60889 4.64342 3.62476 4.54961C3.6339 4.49765 3.62668 4.32158 3.50642 4.2855C3.45687 4.27443 3.38807 4.30185 3.41068 4.36487C3.39914 4.3947 3.50064 4.49669 3.51844 4.55249ZM5.87667 5.11679C5.78479 5.16683 5.74871 5.315 5.80644 5.40111C5.85984 5.4776 5.9445 5.44922 5.95605 5.44922C6.04649 5.46028 6.09989 5.27988 6.09989 5.27988C6.09989 5.27988 6.10278 5.22937 5.9955 5.3251C5.95028 5.33376 5.9445 5.31692 5.93344 5.29094C5.92249 5.24386 5.92739 5.19448 5.94739 5.15047C5.96279 5.10573 5.92815 5.08601 5.87667 5.11679ZM6.57038 4.56211C6.58521 4.55295 6.59793 4.54076 6.60772 4.52633C6.6175 4.51191 6.62412 4.49557 6.62715 4.47841C6.6411 4.40817 6.55258 4.5116 6.54152 4.43319C6.52179 4.36054 6.57856 4.33072 6.63244 4.26048C6.63437 4.21189 6.6334 4.17774 6.5675 4.21718C6.52131 4.24845 6.42895 4.34371 6.42606 4.45339C6.42317 4.51545 6.41163 4.51497 6.45252 4.55442C6.48187 4.59723 6.51121 4.5929 6.57038 4.56211ZM7.1953 4.59964C7.25495 4.438 7.25495 4.36968 7.25928 4.30089C7.241 4.1965 7.17028 4.19987 7.12362 4.3158C7.10341 4.35958 7.07984 4.59002 7.08369 4.59002C7.06782 4.65881 7.15537 4.68816 7.1953 4.59964ZM11.1257 5.74604C11.1257 5.74604 10.6432 6.08905 10.6316 6.10107C10.5835 6.14341 10.6076 6.2935 10.6316 6.27619C10.6658 6.28966 11.1512 5.96012 11.1416 5.92163C11.1642 5.9226 11.1752 5.72872 11.1257 5.74604ZM11.0665 6.67644C11.0987 6.69376 11.1839 6.5884 11.1805 6.45707C11.1901 6.38924 11.156 6.14052 11.0713 6.09819C11.0194 6.08376 10.9501 6.12801 10.9741 6.21028C10.9621 6.24973 11.0338 6.38779 11.0526 6.46092C11.0694 6.51336 11.0314 6.66105 11.0665 6.67644ZM8.334 7.39613C8.334 7.40046 8.3749 7.43558 8.423 7.40767C8.52403 7.36871 8.58753 7.33118 8.72897 7.29991C8.76601 7.29943 8.76361 7.19985 8.70491 7.19648C8.62842 7.20033 8.55722 7.20418 8.48073 7.26479C8.43359 7.27538 8.42589 7.247 8.41531 7.22102C8.40376 7.15703 8.44177 7.11277 8.43359 7.06515C8.43647 7.06803 8.38981 7.02522 8.34218 7.04927C8.33978 7.04927 8.23587 7.11951 8.20267 7.16858C8.18198 7.18445 8.18439 7.19793 8.19064 7.22438C8.20652 7.26095 8.2349 7.24988 8.26665 7.23256C8.30899 7.22679 8.32919 7.25469 8.32583 7.3052C8.30562 7.36919 8.334 7.39276 8.334 7.39613ZM11.4855 7.47599C11.4697 7.50341 11.4591 7.54478 11.5081 7.55777C11.5986 7.58327 11.8069 7.4476 11.8069 7.4452C11.8406 7.4197 11.8295 7.37207 11.8266 7.37207C11.8069 7.34946 11.7626 7.36245 11.7328 7.35909C11.7188 7.35909 11.6717 7.35187 11.6943 7.3105C11.7102 7.28819 11.7229 7.26373 11.7318 7.23785C11.7458 7.20658 11.7338 7.1859 11.6828 7.16906C11.6313 7.15944 11.6106 7.16425 11.5534 7.16906C11.5226 7.1758 11.512 7.18927 11.5062 7.22679C11.5086 7.28356 11.5428 7.28067 11.5784 7.30328C11.5991 7.32974 11.6125 7.35379 11.5769 7.39661C11.5433 7.42788 11.5197 7.4452 11.4855 7.47599ZM11.3932 9.97277H10.6715V9.73223C10.6715 9.66843 10.6462 9.60725 10.6011 9.56214C10.556 9.51703 10.4948 9.49169 10.431 9.49169C10.3672 9.49169 10.306 9.51703 10.2609 9.56214C10.2158 9.60725 10.1905 9.66843 10.1905 9.73223V9.97277H4.41757C4.41757 9.97277 4.41757 10.4538 5.8608 10.4538H10.1905V10.6944C10.1905 10.7582 10.2158 10.8194 10.2609 10.8645C10.306 10.9096 10.3672 10.9349 10.431 10.9349C10.4948 10.9349 10.556 10.9096 10.6011 10.8645C10.6462 10.8194 10.6715 10.7582 10.6715 10.6944V10.4538H11.1526V10.6944C11.1526 10.7582 11.178 10.8194 11.2231 10.8645C11.2682 10.9096 11.3294 10.9349 11.3932 10.9349C11.457 10.9349 11.5181 10.9096 11.5632 10.8645C11.6084 10.8194 11.6337 10.7582 11.6337 10.6944V10.2133C11.6337 10.1495 11.6084 10.0883 11.5632 10.0432C11.5181 9.99811 11.457 9.97277 11.3932 9.97277Z" fill="white"/>
</svg>
