<svg width="136" height="1065" viewBox="0 0 136 1065" fill="none" xmlns="http://www.w3.org/2000/svg">
<path d="M-20.0128 1064C65.8302 1064 135.42 796.266 135.42 466C135.42 135.734 65.8302 -132 -20.0128 -132C-105.856 -132 -175.445 135.734 -175.445 466C-175.445 796.266 -105.856 1064 -20.0128 1064Z" stroke="#39C0C0" stroke-opacity="0.24" stroke-linecap="round" stroke-linejoin="round"/>
<path d="M-20.0126 1016.41C58.9987 1016.41 123.05 769.982 123.05 466C123.05 162.018 58.9987 -84.4087 -20.0126 -84.4087C-99.0239 -84.4087 -163.075 162.018 -163.075 466C-163.075 769.982 -99.0239 1016.41 -20.0126 1016.41Z" stroke="#39C0C0" stroke-opacity="0.24" stroke-linecap="round" stroke-linejoin="round"/>
<path d="M-20.0121 968.8C52.1649 968.8 110.676 743.688 110.676 466C110.676 188.311 52.1649 -36.8 -20.0121 -36.8C-92.1892 -36.8 -150.7 188.311 -150.7 466C-150.7 743.688 -92.1892 968.8 -20.0121 968.8Z" stroke="#39C0C0" stroke-opacity="0.24" stroke-linecap="round" stroke-linejoin="round"/>
<path d="M-20.0129 921.209C45.3324 921.209 98.3052 717.405 98.3052 466C98.3052 214.595 45.3324 10.7915 -20.0129 10.7915C-85.3582 10.7915 -138.331 214.595 -138.331 466C-138.331 717.405 -85.3582 921.209 -20.0129 921.209Z" stroke="#39C0C0" stroke-opacity="0.24" stroke-linecap="round" stroke-linejoin="round"/>
<path d="M-20.0125 873.6C38.4985 873.6 85.931 691.111 85.931 466C85.931 240.889 38.4985 58.4004 -20.0125 58.4004C-78.5235 58.4004 -125.956 240.889 -125.956 466C-125.956 691.111 -78.5235 873.6 -20.0125 873.6Z" stroke="#39C0C0" stroke-opacity="0.24" stroke-linecap="round" stroke-linejoin="round"/>
<path d="M-20.0123 826.008C31.667 826.008 73.5613 664.827 73.5613 466C73.5613 267.173 31.667 105.991 -20.0123 105.991C-71.6916 105.991 -113.586 267.173 -113.586 466C-113.586 664.827 -71.6916 826.008 -20.0123 826.008Z" stroke="#39C0C0" stroke-opacity="0.24" stroke-linecap="round" stroke-linejoin="round"/>
<path d="M-20.0119 778.399C24.8331 778.399 61.1872 638.533 61.1872 466C61.1872 293.466 24.8331 153.6 -20.0119 153.6C-64.8569 153.6 -101.211 293.466 -101.211 466C-101.211 638.533 -64.8569 778.399 -20.0119 778.399Z" stroke="#39C0C0" stroke-opacity="0.24" stroke-linecap="round" stroke-linejoin="round"/>
<path d="M-20.0127 730.808C18.0006 730.808 48.8165 612.249 48.8165 466C48.8165 319.75 18.0006 201.192 -20.0127 201.192C-58.0259 201.192 -88.8418 319.75 -88.8418 466C-88.8418 612.249 -58.0259 730.808 -20.0127 730.808Z" stroke="#39C0C0" stroke-opacity="0.24" stroke-linecap="round" stroke-linejoin="round"/>
<path d="M-20.0122 683.199C11.1668 683.199 36.4424 585.956 36.4424 466C36.4424 346.044 11.1668 248.801 -20.0122 248.801C-51.1912 248.801 -76.4668 346.044 -76.4668 466C-76.4668 585.956 -51.1912 683.199 -20.0122 683.199Z" stroke="#39C0C0" stroke-opacity="0.24" stroke-linecap="round" stroke-linejoin="round"/>
<path d="M-20.012 635.608C4.33524 635.608 24.0726 559.672 24.0726 466C24.0726 372.328 4.33524 296.392 -20.012 296.392C-44.3593 296.392 -64.0967 372.328 -64.0967 466C-64.0967 559.672 -44.3593 635.608 -20.012 635.608Z" stroke="#39C0C0" stroke-opacity="0.24" stroke-linecap="round" stroke-linejoin="round"/>
<path d="M-20.0126 587.999C-2.49958 587.999 11.6975 533.378 11.6975 466C11.6975 398.622 -2.49958 344.001 -20.0126 344.001C-37.5256 344.001 -51.7227 398.622 -51.7227 466C-51.7227 533.378 -37.5256 587.999 -20.0126 587.999Z" stroke="#39C0C0" stroke-opacity="0.24" stroke-linecap="round" stroke-linejoin="round"/>
</svg>
