<svg width="522" height="357" viewBox="0 0 522 357" fill="none" xmlns="http://www.w3.org/2000/svg">
<path d="M-77 356C253.266 356 521 88.2662 521 -242C521 -572.266 253.266 -840 -77 -840C-407.266 -840 -675 -572.266 -675 -242C-675 88.2662 -407.266 356 -77 356Z" stroke="#39C0C0" stroke-opacity="0.24" stroke-linecap="round" stroke-linejoin="round"/>
<path d="M-76.9994 308.409C226.983 308.409 473.409 61.9825 473.409 -242C473.409 -545.982 226.983 -792.409 -76.9994 -792.409C-380.982 -792.409 -627.408 -545.982 -627.408 -242C-627.408 61.9825 -380.982 308.409 -76.9994 308.409Z" stroke="#39C0C0" stroke-opacity="0.24" stroke-linecap="round" stroke-linejoin="round"/>
<path d="M-77 260.8C200.689 260.8 425.8 35.6884 425.8 -242C425.8 -519.689 200.689 -744.8 -77 -744.8C-354.689 -744.8 -579.8 -519.689 -579.8 -242C-579.8 35.6884 -354.689 260.8 -77 260.8Z" stroke="#39C0C0" stroke-opacity="0.24" stroke-linecap="round" stroke-linejoin="round"/>
<path d="M-76.9994 213.209C174.405 213.209 378.209 9.40483 378.209 -242C378.209 -493.405 174.405 -697.209 -76.9994 -697.209C-328.404 -697.209 -532.208 -493.405 -532.208 -242C-532.208 9.40483 -328.404 213.209 -76.9994 213.209Z" stroke="#39C0C0" stroke-opacity="0.24" stroke-linecap="round" stroke-linejoin="round"/>
<path d="M-77 165.6C148.111 165.6 330.6 -16.8889 330.6 -242C330.6 -467.111 148.111 -649.6 -77 -649.6C-302.111 -649.6 -484.6 -467.111 -484.6 -242C-484.6 -16.8889 -302.111 165.6 -77 165.6Z" stroke="#39C0C0" stroke-opacity="0.24" stroke-linecap="round" stroke-linejoin="round"/>
<path d="M-77.0004 118.008C121.827 118.008 283.008 -43.173 283.008 -242C283.008 -440.827 121.827 -602.009 -77.0004 -602.009C-275.828 -602.009 -437.009 -440.827 -437.009 -242C-437.009 -43.173 -275.828 118.008 -77.0004 118.008Z" stroke="#39C0C0" stroke-opacity="0.24" stroke-linecap="round" stroke-linejoin="round"/>
<path d="M-76.9999 70.3993C95.5335 70.3993 235.399 -69.4667 235.399 -242C235.399 -414.534 95.5335 -554.4 -76.9999 -554.4C-249.533 -554.4 -389.399 -414.534 -389.399 -242C-389.399 -69.4667 -249.533 70.3993 -76.9999 70.3993Z" stroke="#39C0C0" stroke-opacity="0.24" stroke-linecap="round" stroke-linejoin="round"/>
<path d="M-77.0003 22.8083C69.2492 22.8083 187.808 -95.7504 187.808 -242C187.808 -388.25 69.2492 -506.808 -77.0003 -506.808C-223.25 -506.808 -341.809 -388.25 -341.809 -242C-341.809 -95.7504 -223.25 22.8083 -77.0003 22.8083Z" stroke="#39C0C0" stroke-opacity="0.24" stroke-linecap="round" stroke-linejoin="round"/>
</svg>
