<svg width="32" height="32" viewBox="0 0 32 32" fill="none" xmlns="http://www.w3.org/2000/svg">
<g clip-path="url(#clip0_283_2178)">
<path fill-rule="evenodd" clip-rule="evenodd" d="M8.00716 18.8001C6.43597 17.2288 6.19609 15.0795 8.01253 13.1952L20.3707 0.836779C20.9102 0.30667 21.6373 0.0111106 22.3936 0.014432C23.15 0.0177533 23.8744 0.319686 24.4092 0.854514C24.9441 1.38934 25.246 2.11377 25.2493 2.87012C25.2526 3.62647 24.9571 4.35353 24.427 4.89303L13.3203 16.0001L24.4272 27.107C24.6973 27.3724 24.9123 27.6888 25.0595 28.0378C25.2068 28.3868 25.2835 28.7615 25.2851 29.1403C25.2868 29.5191 25.2134 29.8945 25.0692 30.2447C24.925 30.595 24.7129 30.9133 24.445 31.1811C24.1772 31.449 23.859 31.6611 23.5087 31.8053C23.1584 31.9495 22.783 32.0229 22.4042 32.0212C22.0255 32.0195 21.6508 31.9429 21.3018 31.7956C20.9528 31.6483 20.6364 31.4334 20.3709 31.1632L8.00716 18.8001Z" fill="#BABBBC"/>
</g>
<defs>
<clipPath id="clip0_283_2178">
<rect width="32" height="32" fill="white" transform="matrix(-1 0 0 1 32 0)"/>
</clipPath>
</defs>
</svg>
