<svg width="39" height="39" viewBox="0 0 39 39" fill="none" xmlns="http://www.w3.org/2000/svg">
<path d="M30.8587 11.4075C30.9471 11.6366 31.1026 11.8336 31.3049 11.9728C31.5071 12.112 31.7467 12.1868 31.9922 12.1875C32.1424 12.1864 32.2912 12.1575 32.4309 12.1022C32.731 11.9851 32.9725 11.754 33.1026 11.4595C33.2328 11.1649 33.2411 10.8307 33.1256 10.53C32.5618 9.08599 31.7719 7.74076 30.7856 6.54473C30.5738 6.31824 30.2836 6.181 29.9742 6.16097C29.6647 6.14093 29.3593 6.23961 29.12 6.43691C28.8808 6.6342 28.7258 6.91528 28.6865 7.22288C28.6473 7.53049 28.7267 7.84149 28.9087 8.09255C29.7301 9.08737 30.3883 10.2063 30.8587 11.4075ZM26.8125 6.0938C27.1357 6.0938 27.4457 5.96539 27.6743 5.73683C27.9028 5.50827 28.0312 5.19828 28.0312 4.87505C28.0259 4.71118 27.9875 4.55008 27.9184 4.40139C27.8493 4.25271 27.7509 4.1195 27.6291 4.00973C27.5252 3.89705 27.3989 3.80737 27.2582 3.7465C27.1176 3.68562 26.9657 3.6549 26.8125 3.6563C26.4893 3.6563 26.1793 3.7847 25.9507 4.01326C25.7222 4.24182 25.5938 4.55181 25.5938 4.87505C25.5985 5.05092 25.6412 5.22369 25.7191 5.38148C25.7969 5.53927 25.908 5.67833 26.0447 5.78911C26.2574 5.97695 26.5289 6.08471 26.8125 6.0938ZM10.9688 15.8438C10.9688 17.5311 11.4691 19.1805 12.4065 20.5835C13.344 21.9865 14.6763 23.0799 16.2352 23.7256C17.7941 24.3714 19.5095 24.5403 21.1644 24.2111C22.8193 23.8819 24.3394 23.0694 25.5325 21.8763C26.7256 20.6832 27.5381 19.1631 27.8673 17.5082C28.1965 15.8533 28.0276 14.1379 27.3818 12.579C26.7361 11.0201 25.6427 9.68775 24.2397 8.75032C22.8368 7.81289 21.1873 7.31255 19.5 7.31255C17.2374 7.31255 15.0674 8.21137 13.4675 9.81129C11.8676 11.4112 10.9688 13.5812 10.9688 15.8438ZM25.5938 15.8438C25.5938 17.049 25.2364 18.2272 24.5668 19.2293C23.8972 20.2314 22.9455 21.0125 21.832 21.4737C20.7185 21.9349 19.4932 22.0556 18.3112 21.8205C17.1291 21.5853 16.0433 21.005 15.1911 20.1527C14.3388 19.3005 13.7585 18.2147 13.5233 17.0326C13.2882 15.8506 13.4089 14.6253 13.8701 13.5118C14.3313 12.3983 15.1124 11.4466 16.1145 10.777C17.1166 10.1074 18.2948 9.75005 19.5 9.75005C21.1162 9.75005 22.6661 10.3921 23.8089 11.5349C24.9517 12.6777 25.5938 14.2276 25.5938 15.8438Z" fill="white"/>
<path d="M37.4271 32.041L30.663 25.2769C32.9002 22.6432 34.1272 19.2994 34.1243 15.8438C34.1243 15.5205 33.9959 15.2106 33.7673 14.982C33.5388 14.7534 33.2288 14.625 32.9055 14.625C32.5823 14.625 32.2723 14.7534 32.0437 14.982C31.8152 15.2106 31.6868 15.5205 31.6868 15.8438C31.6852 17.8255 31.2005 19.7769 30.2746 21.5289C29.3486 23.281 28.0094 24.7808 26.373 25.8985L25.1543 26.6297C23.4128 27.5477 21.4739 28.0274 19.5054 28.0274C17.5368 28.0274 15.5979 27.5477 13.8565 26.6297L12.6377 25.8985C10.2637 24.2629 8.54631 21.8388 7.79068 19.0567C7.03505 16.2746 7.29009 13.3147 8.5105 10.7029C9.73091 8.09105 11.8377 5.99641 14.4565 4.79107C17.0753 3.58573 20.0366 3.34775 22.8143 4.11941C22.9719 4.17664 23.1396 4.20075 23.3069 4.19022C23.4742 4.17969 23.6376 4.13474 23.7868 4.05819C23.9359 3.98165 24.0677 3.87514 24.1738 3.74535C24.28 3.61555 24.3582 3.46525 24.4036 3.30385C24.449 3.14245 24.4606 2.97341 24.4377 2.80732C24.4147 2.64123 24.3578 2.48165 24.2704 2.33857C24.183 2.19549 24.067 2.07198 23.9297 1.97576C23.7924 1.87955 23.6367 1.8127 23.4724 1.7794C20.4631 0.940068 17.2642 1.08641 14.3441 2.19701C11.4241 3.3076 8.93642 5.32407 7.24552 7.95103C5.55461 10.578 4.74935 13.6774 4.94769 16.7952C5.14603 19.913 6.33756 22.8854 8.34771 25.2769L1.57146 32.041C1.39958 32.2114 1.28236 32.4292 1.23475 32.6666C1.18713 32.9039 1.21128 33.1501 1.3041 33.3736C1.39693 33.5972 1.55424 33.7881 1.75597 33.9219C1.95769 34.0557 2.1947 34.1264 2.43678 34.125H6.43428L7.37271 36.9525C7.438 37.1504 7.55295 37.3283 7.70658 37.4691C7.8602 37.61 8.04738 37.709 8.25021 37.7569L8.53053 37.7813C8.69092 37.7822 8.84992 37.7515 8.99841 37.6908C9.1469 37.6302 9.28196 37.5408 9.39584 37.4278L16.6352 30.1885C18.5256 30.569 20.4729 30.569 22.3633 30.1885L29.6027 37.4278C29.7166 37.5408 29.8516 37.6302 30.0001 37.6908C30.1486 37.7515 30.3076 37.7822 30.468 37.7813H30.7483C30.9512 37.7334 31.1383 37.6343 31.292 37.4935C31.4456 37.3527 31.5606 37.1748 31.6258 36.9769L32.5643 34.125H36.5618C36.8038 34.1264 37.0409 34.0557 37.2426 33.9219C37.4443 33.7881 37.6016 33.5972 37.6944 33.3736C37.7873 33.1501 37.8114 32.9039 37.7638 32.6666C37.7162 32.4292 37.599 32.2114 37.4271 32.041ZM13.8808 29.4938L9.00584 34.3688L8.40865 32.5894C8.34299 32.3433 8.20187 32.124 8.00513 31.9622C7.80839 31.8004 7.56592 31.7044 7.31178 31.6875H5.37396L9.93209 27.1294L11.2849 27.9338C11.7324 28.2355 12.1962 28.5121 12.6743 28.7625L13.8808 29.4938ZM31.6868 31.6875C31.4313 31.6869 31.182 31.7665 30.9743 31.9152C30.7665 32.064 30.6107 32.2742 30.529 32.5163L29.9318 34.2957L25.0568 29.4207L26.2755 28.7016C26.7536 28.4512 27.2174 28.1745 27.6649 27.8728L29.0177 27.0685L33.6246 31.6875H31.6868Z" fill="white"/>
</svg>
