<svg width="36" height="36" viewBox="0 0 36 36" fill="none" xmlns="http://www.w3.org/2000/svg">
<path d="M4.50003 31.5H31.5C31.8979 31.5 32.2794 31.342 32.5607 31.0607C32.842 30.7794 33 30.3978 33 30V12C33.0032 11.8001 32.9663 11.6015 32.8916 11.4161C32.8169 11.2306 32.7059 11.0619 32.565 10.92C32.4046 10.7622 32.2108 10.6426 31.9979 10.5699C31.785 10.4972 31.5584 10.4733 31.335 10.5H25.5V7.5C25.5 7.10218 25.342 6.72064 25.0607 6.43934C24.7794 6.15804 24.3979 6 24 6H12C11.6022 6 11.2207 6.15804 10.9394 6.43934C10.6581 6.72064 10.5 7.10218 10.5 7.5V10.5H4.66503C4.45464 10.4767 4.2417 10.4982 4.04022 10.5631C3.83873 10.628 3.65326 10.7348 3.496 10.8765C3.33873 11.0181 3.21323 11.1915 3.12775 11.3851C3.04227 11.5788 2.99874 11.7883 3.00003 12V30C3.00003 30.3978 3.15806 30.7794 3.43937 31.0607C3.72067 31.342 4.1022 31.5 4.50003 31.5ZM6.00003 28.5V15.615L10.905 20.565C11.0487 20.7077 11.2198 20.8198 11.408 20.8945C11.5962 20.9693 11.7976 21.0052 12 21H16.5V24C16.5 24.3978 16.6581 24.7794 16.9394 25.0607C17.2207 25.342 17.6022 25.5 18 25.5C18.3979 25.5 18.7794 25.342 19.0607 25.0607C19.342 24.7794 19.5 24.3978 19.5 24V21H24C24.1985 20.9992 24.3948 20.959 24.5776 20.8817C24.7604 20.8045 24.9261 20.6917 25.065 20.55L30 15.615V28.5H6.00003ZM27.885 13.5L23.385 18H12.6L8.10003 13.5H27.885ZM13.5 9H22.5V10.5H13.5V9Z" fill="#13A3D9"/>
</svg>
