<svg width="54" height="31" viewBox="0 0 54 31" fill="none" xmlns="http://www.w3.org/2000/svg">
<g filter="url(#filter0_d_1_3969)">
<rect x="5.65723" y="4.07031" width="42.8921" height="20.1057" rx="8" fill="#FEFEFE"/>
<path d="M22.5313 14.9802H14.3923C13.2696 14.9802 12.3594 15.8904 12.3594 17.0132C12.3594 18.136 13.2696 19.0461 14.3923 19.0461H22.5313C23.6541 19.0461 24.5643 18.136 24.5643 17.0132C24.5643 15.8904 23.6541 14.9802 22.5313 14.9802Z" fill="#84B740"/>
<path d="M22.5295 9.43188H14.3941C13.2704 9.43188 12.3594 10.3429 12.3594 11.4666C12.3594 12.5904 13.2704 13.5014 14.3941 13.5014H22.5295C23.6533 13.5014 24.5643 12.5904 24.5643 11.4666C24.5643 10.3429 23.6533 9.43188 22.5295 9.43188Z" fill="#259BD6"/>
<path d="M36.7684 18.1642C36.7684 18.1964 36.7457 18.2242 36.714 18.2305C36.5256 18.2668 36.4567 18.2812 36.319 18.2812C36.0001 18.2812 35.6232 18.1182 35.6232 17.3499C35.6232 16.9549 35.6884 16.4295 36.2827 16.4295H36.2864C36.3878 16.4367 36.5038 16.4476 36.7212 16.5128C36.7492 16.5214 36.7683 16.5473 36.7683 16.5766L36.7684 18.1642ZM36.8663 14.3893C36.8095 14.3998 36.7684 14.4493 36.7684 14.5069V15.7374C36.7684 15.7826 36.7249 15.8152 36.6815 15.8025L36.6561 15.7953C36.5582 15.7663 36.3336 15.7011 36.1161 15.7011C34.9275 15.7011 34.6775 16.5998 34.6775 17.3535C34.6775 18.3863 35.2573 18.9806 36.2684 18.9806C36.696 18.9806 37.0112 18.9372 37.3301 18.8321C37.6237 18.7379 37.7288 18.6038 37.7288 18.3175V15.1159C37.7288 14.6598 37.3163 14.3152 36.8663 14.3893Z" fill="#27292D"/>
<path d="M40.3015 18.2449C40.3015 18.2449 40.3015 18.2449 40.3015 18.2449L40.2508 18.2594L40.0696 18.3065C39.8993 18.35 39.7471 18.3754 39.6311 18.3754C39.3521 18.3754 39.1854 18.2377 39.1854 18.0022C39.1854 17.85 39.2542 17.5927 39.7108 17.5927H39.9753C40.1555 17.5927 40.3015 17.7387 40.3015 17.9188V18.2449C40.3015 18.2449 40.3015 18.2449 40.3015 18.2449ZM39.8848 15.6829C39.5188 15.6829 39.1419 15.7481 38.6744 15.893L38.6513 15.8999C38.4898 15.948 38.3882 16.1073 38.4128 16.2739L38.4259 16.3626C38.4497 16.5242 38.6135 16.6254 38.7687 16.5743C39.0804 16.4728 39.4681 16.4076 39.758 16.4076C39.8885 16.4076 40.2871 16.4076 40.2871 16.8388C40.2871 16.9429 40.2027 17.0273 40.0987 17.0273H39.7327C38.7216 17.0273 38.2542 17.3498 38.2542 18.0419C38.2542 18.6326 38.6854 18.9877 39.4101 18.9877C39.6348 18.9877 39.9465 18.9442 40.2146 18.879C40.2241 18.8766 40.2341 18.8766 40.2436 18.879L40.3342 18.8935C40.7821 18.9738 41.1966 18.6279 41.1966 18.1729V16.788C41.1966 16.0561 40.7545 15.6829 39.8848 15.6829Z" fill="#27292D"/>
<path d="M33.258 18.2449C33.2586 18.2449 33.2587 18.2456 33.2582 18.2458L33.2105 18.2594L33.0293 18.3065C32.859 18.35 32.7104 18.3754 32.5908 18.3754C32.3118 18.3754 32.1451 18.2377 32.1451 18.0022C32.1451 17.85 32.214 17.5927 32.667 17.5927H32.9315C33.1116 17.5927 33.2576 17.7387 33.2576 17.9188V18.2445C33.2576 18.2447 33.2578 18.2449 33.258 18.2449ZM32.8481 15.6829C32.4785 15.6829 32.1053 15.7481 31.6378 15.893L31.6146 15.8999C31.4532 15.948 31.3516 16.1073 31.3761 16.2739L31.3892 16.3626C31.413 16.5242 31.5768 16.6254 31.732 16.5743C32.0437 16.4728 32.4314 16.4076 32.7213 16.4076C32.8518 16.4076 33.2504 16.4076 33.2504 16.8388C33.2504 16.9429 33.166 17.0273 33.062 17.0273H32.696C31.6849 17.0273 31.2139 17.3498 31.2139 18.0419C31.2139 18.6326 31.6451 18.9877 32.3735 18.9877C32.5982 18.9877 32.9098 18.9442 33.178 18.879C33.1875 18.8766 33.1974 18.8766 33.2069 18.879L33.2939 18.8935C33.7403 18.9725 34.1563 18.6292 34.1563 18.1758V16.7916C34.16 16.0525 33.7179 15.6829 32.8481 15.6829Z" fill="#27292D"/>
<path d="M29.4469 15.6907C28.9867 15.6907 28.6062 15.8429 28.4649 15.9081C28.4428 15.9192 28.4163 15.9166 28.3967 15.9014L28.3961 15.9008C28.2004 15.7595 27.9141 15.687 27.5155 15.687C27.164 15.687 26.8342 15.7377 26.4754 15.8428C26.1674 15.937 26.0479 16.0856 26.0479 16.3647V18.4665C26.0479 18.7327 26.2636 18.9485 26.5298 18.9485C26.796 18.9485 27.0118 18.7327 27.0118 18.4665V16.6097C27.0118 16.5803 27.0309 16.5545 27.0589 16.5459C27.2546 16.4807 27.3706 16.4698 27.4829 16.4698C27.762 16.4698 27.9033 16.6183 27.9033 16.9082V18.4773C27.9033 18.7395 28.1158 18.952 28.378 18.952C28.6402 18.952 28.8527 18.7395 28.8527 18.4773V16.8684C28.8527 16.7587 28.8326 16.6892 28.8256 16.6651C28.8243 16.6605 28.8226 16.6561 28.8204 16.6519C28.8045 16.622 28.8174 16.5849 28.8483 16.5712L28.8563 16.5676C29.0013 16.5024 29.1607 16.4698 29.3274 16.4698C29.5194 16.4698 29.7477 16.5459 29.7477 16.9082V18.4791C29.7477 18.7403 29.9594 18.952 30.2206 18.952C30.4818 18.952 30.6935 18.7403 30.6935 18.4791V16.8141C30.6935 16.0566 30.2877 15.6907 29.4469 15.6907Z" fill="#27292D"/>
<path d="M39.5931 12.0845C39.4518 12.0845 39.2162 12.07 39.0314 12.0338C38.9998 12.0274 38.9771 11.9996 38.9771 11.9674V10.6277C38.9771 10.5117 38.9553 10.4392 38.9517 10.4283C38.936 10.397 38.9503 10.359 38.9826 10.3457L38.9843 10.345C38.9974 10.3385 39.0104 10.3348 39.0261 10.3289C39.0297 10.3276 39.033 10.3258 39.0362 10.3237C39.0403 10.321 39.0447 10.3188 39.0493 10.3173C39.0687 10.3108 39.0881 10.3043 39.1076 10.2978C39.1242 10.2923 39.1416 10.2882 39.1586 10.2839C39.3623 10.2332 39.546 10.2396 39.6294 10.2326H39.6331C40.2237 10.2326 40.2926 10.7581 40.2926 11.1531C40.2889 11.9214 39.9084 12.0845 39.5931 12.0845ZM39.5895 9.43188C39.5823 9.43188 39.5714 9.43188 39.5641 9.43188C39.0097 9.43188 38.4407 9.5841 38.2378 9.88122C38.1291 10.0262 38.0675 10.2074 38.0639 10.4211V11.8598C38.0639 11.9636 38.0458 12.0134 38.038 12.033C38.0359 12.0383 38.0335 12.0435 38.0309 12.0486C38.0133 12.0818 37.9787 12.1026 37.9411 12.1026H36.7521C36.4759 12.1026 36.252 11.8787 36.252 11.6025V11.1043C36.252 11.1033 36.2512 11.1025 36.2501 11.1025C36.2491 11.1025 36.2483 11.1016 36.2483 11.1006C36.2259 10.0472 35.6028 9.46811 34.701 9.46811H34.5959H34.123C33.9494 9.46811 33.802 9.59847 33.7765 9.77011C33.7454 9.97939 33.908 10.1639 34.1196 10.1639H34.5959C35.0561 10.1639 35.2989 10.5553 35.2989 11.1568V12.0978C35.2989 12.1279 35.2669 12.1472 35.2402 12.1331C35.2383 12.1321 35.2363 12.1312 35.2342 12.1306C35.216 12.1246 35.1423 12.1026 35.0307 12.1026H33.8123C33.642 12.1026 33.5007 12.2048 33.4755 12.3733C33.4442 12.5828 33.6027 12.7948 33.8146 12.7948H37.9438C38.026 12.7948 38.106 12.7865 38.1868 12.7717C38.4349 12.7263 38.6932 12.7724 38.9403 12.8227C39.1435 12.864 39.3686 12.8854 39.5459 12.8854C40.557 12.8854 41.2129 12.2077 41.2129 11.1641C41.2093 10.1313 40.5752 9.45362 39.5895 9.43188Z" fill="#27292D"/>
<path d="M31.4257 13.2189H31.4691C32.4802 13.2189 32.9513 12.8855 32.9513 12.063C32.9513 11.4722 32.52 11.0012 31.7953 11.0012H30.864C30.585 11.0012 30.4183 10.8417 30.4183 10.5736C30.4183 10.3924 30.4871 10.1677 30.9437 10.1677H32.6831C32.8545 10.1677 33.0015 10.0397 33.0267 9.87025C33.0581 9.65855 32.8928 9.47192 32.6787 9.47192H30.969C29.9834 9.47192 29.4869 9.88503 29.4869 10.5736C29.4869 11.2548 29.9181 11.61 30.6429 11.61H31.5742C31.8532 11.61 32.0199 11.831 32.0199 12.063C32.0199 12.2152 31.951 12.5304 31.4981 12.5304H31.3422L28.3598 12.5232H27.8163C27.356 12.5232 27.0335 12.2623 27.0335 11.6571V11.2403C27.0335 10.6098 27.2836 10.2184 27.8163 10.2184H28.4012C28.5731 10.2184 28.7205 10.0839 28.7456 9.91381C28.7765 9.70483 28.6129 9.5263 28.4017 9.5263H27.7003H27.5952C26.6929 9.5263 26.0696 10.1315 26.0479 11.186V11.2258V11.6571C26.0696 12.7116 26.6929 13.2153 27.5952 13.2153H27.7003H28.4758L30.092 13.219H31.0559L31.4257 13.2189Z" fill="#27292D"/>
</g>
<defs>
<filter id="filter0_d_1_3969" x="0.657227" y="0.0703125" width="52.8921" height="30.1057" filterUnits="userSpaceOnUse" color-interpolation-filters="sRGB">
<feFlood flood-opacity="0" result="BackgroundImageFix"/>
<feColorMatrix in="SourceAlpha" type="matrix" values="0 0 0 0 0 0 0 0 0 0 0 0 0 0 0 0 0 0 127 0" result="hardAlpha"/>
<feOffset dy="1"/>
<feGaussianBlur stdDeviation="2.5"/>
<feComposite in2="hardAlpha" operator="out"/>
<feColorMatrix type="matrix" values="0 0 0 0 0 0 0 0 0 0 0 0 0 0 0 0 0 0 0.11 0"/>
<feBlend mode="normal" in2="BackgroundImageFix" result="effect1_dropShadow_1_3969"/>
<feBlend mode="normal" in="SourceGraphic" in2="effect1_dropShadow_1_3969" result="shape"/>
</filter>
</defs>
</svg>
