<svg width="96" height="96" viewBox="0 0 96 96" fill="none" xmlns="http://www.w3.org/2000/svg">
<g clip-path="url(#clip0_283_2155)">
<path d="M82.4248 17.7054L78.1963 13.477V0.791504L65.041 14.4168L64.1015 25.2229L50.4762 38.8482C49.5365 38.8482 49.0667 38.8482 48.1271 38.8482C42.9589 38.8482 38.7305 43.0766 38.7305 48.2448C38.7305 53.413 42.9589 57.6415 48.1271 57.6415C53.2953 57.6415 57.5237 53.413 57.5237 48.2448C57.5237 47.3052 57.5237 46.8353 57.0539 45.8957L70.6792 32.2705L81.4854 31.3307L95.1106 17.7054H82.4248Z" fill="#13A3D9"/>
<path d="M73.4986 36.4988H73.0288L66.4511 43.5464C66.9208 44.9559 66.9209 46.8352 66.9209 48.2448C66.9209 58.5812 58.4638 67.0382 48.1274 67.0382C37.791 67.0382 29.3339 58.5812 29.3339 48.2448C29.3339 37.9084 37.7912 29.4513 48.1276 29.4513C50.0069 29.4513 51.4165 29.9211 52.826 29.9211L59.8735 22.8736V22.4038C56.1149 20.9943 52.3562 20.0547 48.1276 20.0547C32.623 20.0547 19.9375 32.7402 19.9375 48.2448C19.9375 63.7494 32.623 76.4347 48.1276 76.4347C63.6322 76.4347 76.3177 63.7492 76.3177 48.2446C76.3177 44.0161 75.3779 40.2575 73.4986 36.4988Z" fill="#13A3D9"/>
<path d="M90.8828 28.9815L83.8353 35.5593C84.775 39.3179 85.7146 43.5465 85.7146 48.2448C85.7146 68.9175 68.8006 85.8315 48.1279 85.8315C27.4551 85.8315 10.5412 68.9174 10.5412 48.2448C10.5412 27.5722 27.4551 10.658 48.1279 10.658C52.3563 10.658 56.5849 11.5978 60.8134 13.0072V12.5374L67.8609 5.48985C61.7531 2.67077 55.1754 1.26123 48.1279 1.26123C22.2869 1.26123 1.14453 22.4038 1.14453 48.2448C1.14453 74.0857 22.2869 95.2281 48.1279 95.2281C73.9688 95.2281 95.1112 74.0856 95.1112 48.2448C95.1112 41.1972 93.7019 34.6195 90.8828 28.9815Z" fill="#13A3D9"/>
</g>
<defs>
<clipPath id="clip0_283_2155">
<rect width="94.4367" height="94.4367" fill="white" transform="translate(0.910156 0.791504)"/>
</clipPath>
</defs>
</svg>
