<svg width="13" height="14" viewBox="0 0 13 14" fill="none" xmlns="http://www.w3.org/2000/svg">
<g clip-path="url(#clip0_283_2064)">
<path d="M6.5 0.0546875C2.94277 0.0546875 0.0507812 3.16914 0.0507812 7C0.0507812 10.8309 2.94277 13.9453 6.5 13.9453C10.0572 13.9453 12.9492 10.8309 12.9492 7C12.9492 3.16914 10.0572 0.0546875 6.5 0.0546875ZM6.5 12.5563C3.65625 12.5563 1.34062 10.0625 1.34062 7C1.34062 3.9375 3.65625 1.44375 6.5 1.44375C9.34375 1.44375 11.6594 3.9375 11.6594 7C11.6594 10.0625 9.34375 12.5563 6.5 12.5563Z" fill="#13A3D9"/>
<path d="M7.14531 6.62814V3.52736C7.14531 3.14454 6.85586 2.83282 6.50039 2.83282C6.14492 2.83282 5.85547 3.14454 5.85547 3.52736V7.00001C5.85547 7.23243 5.96211 7.44845 6.14238 7.57696L8.07715 8.96603C8.18633 9.04532 8.31074 9.08361 8.43516 9.08361C8.64336 9.08361 8.84902 8.97423 8.97344 8.77462C9.17148 8.4547 9.09023 8.0254 8.7957 7.81212L7.14531 6.62814Z" fill="#13A3D9"/>
</g>
<defs>
<clipPath id="clip0_283_2064">
<rect width="13" height="14" fill="white"/>
</clipPath>
</defs>
</svg>
