<svg width="40" height="39" viewBox="0 0 40 39" fill="none" xmlns="http://www.w3.org/2000/svg">
<path d="M34.8485 18.0696C34.8485 26.0159 28.9319 33.4584 20.8485 35.6359C20.2985 35.7821 19.6984 35.7821 19.1484 35.6359C11.0651 33.4584 5.14844 26.0159 5.14844 18.0696V10.9359C5.14844 9.60336 6.1818 8.0921 7.46514 7.58835L16.7484 3.8834C18.8317 3.05465 21.1817 3.05465 23.265 3.8834L32.5484 7.58835C33.815 8.0921 34.8652 9.60336 34.8652 10.9359L34.8485 18.0696Z" stroke="#13A3D9" stroke-width="2" stroke-linecap="round" stroke-linejoin="round"/>
<path d="M20.0013 20.3125C21.8423 20.3125 23.3346 18.8575 23.3346 17.0625C23.3346 15.2676 21.8423 13.8125 20.0013 13.8125C18.1603 13.8125 16.668 15.2676 16.668 17.0625C16.668 18.8575 18.1603 20.3125 20.0013 20.3125Z" stroke="#13A3D9" stroke-width="2" stroke-miterlimit="10" stroke-linecap="round" stroke-linejoin="round"/>
<path d="M20 20.3125V25.1875" stroke="#13A3D9" stroke-width="2" stroke-miterlimit="10" stroke-linecap="round" stroke-linejoin="round"/>
</svg>
