<svg width="39" height="24" viewBox="0 0 39 24" fill="none" xmlns="http://www.w3.org/2000/svg">
<path d="M24.7647 2.51978H14.499V21.0462H24.7647V2.51978Z" fill="#FF5F00"/>
<path d="M15.1508 11.7848C15.1489 10.0004 15.5514 8.23884 16.3278 6.63367C17.1041 5.02851 18.234 3.62178 19.6319 2.52001C17.9011 1.15408 15.8225 0.304693 13.6338 0.0689192C11.445 -0.166854 9.23436 0.2205 7.25446 1.18671C5.27455 2.15292 3.60529 3.65901 2.43744 5.53284C1.26958 7.40667 0.650269 9.57264 0.650269 11.7832C0.650269 13.9938 1.26958 16.1597 2.43744 18.0336C3.60529 19.9074 5.27455 21.4135 7.25446 22.3797C9.23436 23.3459 11.445 23.7333 13.6338 23.4975C15.8225 23.2617 17.9011 22.4123 19.6319 21.0464C18.2344 19.945 17.1048 18.5388 16.3285 16.9342C15.5521 15.3296 15.1494 13.5688 15.1508 11.7848Z" fill="#EB001B"/>
<path d="M38.6151 11.7845C38.6151 13.9952 37.9956 16.1613 36.8276 18.0352C35.6595 19.9091 33.99 21.4152 32.0099 22.3812C30.0297 23.3473 27.8188 23.7344 25.6299 23.4983C23.4411 23.2622 21.3625 22.4124 19.6318 21.046C21.0287 19.9436 22.158 18.537 22.9346 16.9324C23.7111 15.3277 24.1146 13.5669 24.1146 11.7829C24.1146 9.99876 23.7111 8.23796 22.9346 6.63331C22.158 5.02866 21.0287 3.62207 19.6318 2.51966C21.3625 1.15331 23.4411 0.303506 25.6299 0.0673939C27.8188 -0.168718 30.0297 0.218387 32.0099 1.18446C33.99 2.15053 35.6595 3.65659 36.8276 5.53049C37.9956 7.40438 38.6151 9.57049 38.6151 11.7812V11.7845Z" fill="#F79E1B"/>
</svg>
