<svg width="45" height="22" viewBox="0 0 45 22" fill="none" xmlns="http://www.w3.org/2000/svg">
<rect y="0.0703125" width="44.9026" height="21.446" rx="4" fill="black"/>
<path d="M12.7236 6.13088C13.0746 5.69542 13.3253 5.1148 13.25 4.53418C12.7236 4.55837 12.0969 4.87287 11.7208 5.28415C11.3949 5.64703 11.0941 6.25184 11.1693 6.80827C11.771 6.88085 12.3476 6.56634 12.7236 6.13088ZM13.25 6.95342C12.3977 6.90504 11.6707 7.41308 11.2696 7.41308C10.8685 7.41308 10.2417 6.97762 9.56487 6.97762C8.68744 7.00181 7.88523 7.46146 7.43398 8.23562C6.53149 9.75975 7.18329 12.0096 8.08578 13.2435C8.51196 13.8483 9.03841 14.5257 9.71528 14.5015C10.3671 14.4773 10.6178 14.0902 11.3949 14.0902C12.1721 14.0902 12.3977 14.5015 13.0996 14.4773C13.8016 14.4531 14.2528 13.8725 14.679 13.2435C15.1804 12.5419 15.3809 11.8645 15.3809 11.8403C15.3559 11.8161 14.0021 11.3323 14.0021 9.83232C13.9771 8.57432 15.055 7.96951 15.1052 7.94531C14.5286 7.07439 13.5759 6.97762 13.25 6.95342Z" fill="#FEFEFE"/>
<path d="M21.7738 5.61133C23.5786 5.61133 24.8225 6.81167 24.8225 8.52981C24.8225 10.2715 23.5542 11.4718 21.725 11.4718H19.7495V14.508H18.3105V5.61133H21.7738ZM19.7495 10.3186H21.3836C22.6274 10.3186 23.3347 9.65954 23.3347 8.55334C23.3347 7.42361 22.6274 6.78813 21.3836 6.78813H19.7251V10.3186H19.7495ZM25.1883 12.6957C25.1883 11.566 26.0907 10.8599 27.7004 10.7657L29.5539 10.6716V10.1773C29.5539 9.44772 29.0418 9.02407 28.2125 9.02407C27.4077 9.02407 26.9199 9.40064 26.798 9.96551H25.481C25.5541 8.78871 26.6029 7.91787 28.2613 7.91787C29.8954 7.91787 30.9441 8.74163 30.9441 10.0597V14.5315H29.6271V13.4724H29.6027C29.2125 14.202 28.3589 14.6492 27.4809 14.6492C26.1151 14.6492 25.1883 13.849 25.1883 12.6957ZM29.5539 12.1073V11.5895L27.8955 11.6836C27.0663 11.7307 26.6029 12.0838 26.6029 12.6486C26.6029 13.2135 27.0906 13.5901 27.8223 13.5901C28.7979 13.5901 29.5539 12.9546 29.5539 12.1073ZM32.1636 16.9322V15.8495C32.2611 15.8731 32.505 15.8731 32.6026 15.8731C33.2367 15.8731 33.5782 15.6142 33.7977 14.9552C33.7977 14.9316 33.9196 14.5551 33.9196 14.5551L31.4807 8.05909H32.9684L34.6757 13.3547H34.7001L36.4073 8.05909H37.8707L35.3586 14.9081C34.7732 16.485 34.1147 16.9793 32.7245 16.9793C32.627 16.9557 32.2855 16.9557 32.1636 16.9322Z" fill="#FEFEFE"/>
</svg>
