<svg width="42" height="14" viewBox="0 0 42 14" fill="none" xmlns="http://www.w3.org/2000/svg">
<path d="M22.1 4.26629C22.0765 6.11711 23.7522 7.15001 25.0146 7.76407C26.3116 8.39419 26.7473 8.79821 26.7423 9.36161C26.7324 10.224 25.7077 10.6046 24.7485 10.6194C23.0752 10.6453 22.1025 10.1684 21.3289 9.80764L20.7262 12.6234C21.5022 12.9805 22.9391 13.2918 24.4292 13.3054C27.9268 13.3054 30.2152 11.5819 30.2275 8.90941C30.2411 5.51788 25.5282 5.33008 25.5604 3.81408C25.5715 3.35447 26.0109 2.86396 26.9738 2.73917C27.4503 2.67616 28.7659 2.62797 30.2572 3.31369L30.8426 0.589352C30.0406 0.297767 29.0097 0.0185366 27.7263 0.0185366C24.4342 0.0185366 22.1185 1.76558 22.1 4.26629ZM36.4677 0.253287C35.8291 0.253287 35.2907 0.625182 35.0506 1.196L30.0543 13.1053H33.5493L34.2449 11.1865H38.516L38.9194 13.1053H41.9999L39.3118 0.253287H36.4677ZM36.9566 3.72513L37.9652 8.5511H35.2028L36.9566 3.72513ZM17.8623 0.253287L15.1073 13.1053H18.4378L21.1916 0.253287H17.8623ZM12.9353 0.253287L9.46867 9.00084L8.06643 1.56295C7.90182 0.732673 7.25206 0.253287 6.53052 0.253287H0.863388L0.78418 0.626417C1.94756 0.878465 3.26935 1.28496 4.0701 1.71986C4.56021 1.9855 4.70006 2.21778 4.86095 2.84913L7.51692 13.1053H11.0368L16.4328 0.253287H12.9353Z" fill="white"/>
</svg>
