<svg width="14" height="14" viewBox="0 0 14 14" fill="none" xmlns="http://www.w3.org/2000/svg">
<mask id="mask0_283_2072" style="mask-type:luminance" maskUnits="userSpaceOnUse" x="0" y="0" width="14" height="14">
<path d="M14 0H0V14H14V0Z" fill="white"/>
</mask>
<g mask="url(#mask0_283_2072)">
<path d="M13.5625 1.3125V9.1875C13.5625 9.42813 13.3656 9.625 13.125 9.625H7H0.875C0.634375 9.625 0.4375 9.42813 0.4375 9.1875V1.3125C0.4375 1.07187 0.634375 0.875 0.875 0.875H7H13.125C13.3656 0.875 13.5625 1.07187 13.5625 1.3125Z" fill="#39C0C0" fill-opacity="0.18"/>
<path d="M4.375 13.5625L7 10.9375M7 10.9375L9.625 13.5625M7 10.9375V9.625H0.875C0.633063 9.625 0.4375 9.42944 0.4375 9.1875V1.3125C0.4375 1.07056 0.633063 0.875 0.875 0.875H13.125C13.3669 0.875 13.5625 1.07056 13.5625 1.3125V9.1875C13.5625 9.42944 13.3669 9.625 13.125 9.625H8.3125M7 0.4375V0.875M4.375 4.375H9.625M4.375 6.125H6.5625" stroke="#13A3D9" stroke-width="1.2" stroke-linecap="round" stroke-linejoin="round"/>
</g>
</svg>
