<svg width="13" height="13" viewBox="0 0 13 13" fill="none" xmlns="http://www.w3.org/2000/svg">
<path d="M11.2227 1.57422H11.0942V1.9043C11.0942 2.17366 10.9872 2.43199 10.7967 2.62245C10.6062 2.81292 10.3479 2.91992 10.0786 2.91992C9.80919 2.91992 9.55087 2.81292 9.3604 2.62245C9.16993 2.43199 9.06293 2.17366 9.06293 1.9043V1.57422H3.93707V1.9043C3.93707 2.17366 3.83007 2.43199 3.6396 2.62245C3.44913 2.81292 3.19081 2.91992 2.92145 2.91992C2.65208 2.91992 2.39376 2.81292 2.20329 2.62245C2.01282 2.43199 1.90582 2.17366 1.90582 1.9043V1.57422H1.77734C1.30596 1.57422 0.853889 1.76147 0.520572 2.09479C0.187255 2.42811 0 2.88018 0 3.35156L0 11.2227C0 11.694 0.187255 12.1461 0.520572 12.4794C0.853889 12.8127 1.30596 13 1.77734 13H11.2227C11.694 13 12.1461 12.8127 12.4794 12.4794C12.8127 12.1461 13 11.694 13 11.2227V3.35156C13 2.88018 12.8127 2.42811 12.4794 2.09479C12.1461 1.76147 11.694 1.57422 11.2227 1.57422ZM11.9844 10.5879C11.9844 10.7713 11.9483 10.9529 11.8781 11.1223C11.8079 11.2917 11.705 11.4457 11.5754 11.5754C11.4457 11.705 11.2917 11.8079 11.1223 11.8781C10.9529 11.9483 10.7713 11.9844 10.5879 11.9844H2.41211C2.22872 11.9844 2.04713 11.9483 1.8777 11.8781C1.70827 11.8079 1.55432 11.705 1.42465 11.5754C1.29497 11.4457 1.19211 11.2917 1.12193 11.1223C1.05175 10.9529 1.01562 10.7713 1.01562 10.5879V5.76367C1.01562 5.3933 1.16275 5.0381 1.42465 4.77621C1.68654 4.51432 2.04174 4.36719 2.41211 4.36719H10.5879C10.7713 4.36719 10.9529 4.40331 11.1223 4.47349C11.2917 4.54367 11.4457 4.64653 11.5754 4.77621C11.705 4.90588 11.8079 5.05983 11.8781 5.22926C11.9483 5.39869 11.9844 5.58028 11.9844 5.76367V10.5879Z" fill="#13A3D9"/>
<path d="M9.44531 0.634766V1.9043C9.44531 2.25487 9.72951 2.53906 10.0801 2.53906C10.4306 2.53906 10.7148 2.25487 10.7148 1.9043V0.634766C10.7148 0.284194 10.4306 0 10.0801 0C9.72951 0 9.44531 0.284194 9.44531 0.634766Z" fill="#13A3D9"/>
<path d="M2.28906 0.634766V1.9043C2.28906 2.25487 2.57326 2.53906 2.92383 2.53906C3.2744 2.53906 3.55859 2.25487 3.55859 1.9043V0.634766C3.55859 0.284194 3.2744 0 2.92383 0C2.57326 0 2.28906 0.284194 2.28906 0.634766Z" fill="#13A3D9"/>
<path d="M3.77148 5.44629H2.62891C2.34845 5.44629 2.12109 5.67364 2.12109 5.9541V7.09668C2.12109 7.37714 2.34845 7.60449 2.62891 7.60449H3.77148C4.05194 7.60449 4.2793 7.37714 4.2793 7.09668V5.9541C4.2793 5.67364 4.05194 5.44629 3.77148 5.44629Z" fill="#13A3D9"/>
<path d="M7.07227 5.44629H5.92969C5.64923 5.44629 5.42188 5.67364 5.42188 5.9541V7.09668C5.42188 7.37714 5.64923 7.60449 5.92969 7.60449H7.07227C7.35272 7.60449 7.58008 7.37714 7.58008 7.09668V5.9541C7.58008 5.67364 7.35272 5.44629 7.07227 5.44629Z" fill="#13A3D9"/>
<path d="M10.373 5.44629H9.23047C8.95001 5.44629 8.72266 5.67364 8.72266 5.9541V7.09668C8.72266 7.37714 8.95001 7.60449 9.23047 7.60449H10.373C10.6535 7.60449 10.8809 7.37714 10.8809 7.09668V5.9541C10.8809 5.67364 10.6535 5.44629 10.373 5.44629Z" fill="#13A3D9"/>
<path d="M3.77148 8.74707H2.62891C2.34845 8.74707 2.12109 8.97443 2.12109 9.25488V10.3975C2.12109 10.6779 2.34845 10.9053 2.62891 10.9053H3.77148C4.05194 10.9053 4.2793 10.6779 4.2793 10.3975V9.25488C4.2793 8.97443 4.05194 8.74707 3.77148 8.74707Z" fill="#13A3D9"/>
<path d="M7.07227 8.74707H5.92969C5.64923 8.74707 5.42188 8.97443 5.42188 9.25488V10.3975C5.42188 10.6779 5.64923 10.9053 5.92969 10.9053H7.07227C7.35272 10.9053 7.58008 10.6779 7.58008 10.3975V9.25488C7.58008 8.97443 7.35272 8.74707 7.07227 8.74707Z" fill="#13A3D9"/>
<path d="M10.373 8.74707H9.23047C8.95001 8.74707 8.72266 8.97443 8.72266 9.25488V10.3975C8.72266 10.6779 8.95001 10.9053 9.23047 10.9053H10.373C10.6535 10.9053 10.8809 10.6779 10.8809 10.3975V9.25488C10.8809 8.97443 10.6535 8.74707 10.373 8.74707Z" fill="#13A3D9"/>
</svg>
