<svg width="22" height="22" viewBox="0 0 22 22" fill="none" xmlns="http://www.w3.org/2000/svg">
<g clip-path="url(#clip0_283_1304)">
<path d="M18.777 3.22065C14.4806 -1.07446 7.51577 -1.07343 3.22065 3.22302C-1.07446 7.51946 -1.07343 14.4843 3.22302 18.7794C7.51946 23.0745 14.4843 23.0735 18.7794 18.777C20.8421 16.7136 22.0007 13.9153 22 10.9977C21.9994 8.08051 20.8401 5.28307 18.777 3.22065ZM16.6591 15.3229C16.6587 15.3234 16.6582 15.3239 16.6577 15.3243V15.3207L16.1003 15.8743C15.3795 16.6043 14.3298 16.9046 13.332 16.6663C12.3267 16.3973 11.3711 15.969 10.5013 15.3977C9.69325 14.8813 8.94439 14.2775 8.26832 13.5973C7.64626 12.9798 7.08741 12.3018 6.59997 11.5733C6.06682 10.7895 5.64482 9.93564 5.34597 9.036C5.00338 7.97914 5.28728 6.81946 6.07932 6.04035L6.73197 5.3877C6.91343 5.20542 7.20828 5.20478 7.39051 5.38623C7.39099 5.38671 7.3915 5.38718 7.39197 5.3877L9.45263 7.44835C9.6349 7.62981 9.63554 7.92466 9.45409 8.10689C9.45361 8.10736 9.45314 8.10783 9.45263 8.10835L8.24263 9.31835C7.89544 9.66175 7.85178 10.2075 8.13997 10.6017C8.57761 11.2023 9.06191 11.7675 9.58832 12.292C10.1752 12.8815 10.8133 13.4177 11.495 13.8944C11.8889 14.1691 12.4229 14.1228 12.7636 13.7844L13.9333 12.5964C14.1147 12.4141 14.4096 12.4135 14.5918 12.5949C14.5923 12.5954 14.5928 12.5959 14.5933 12.5964L16.6576 14.6644C16.8399 14.8458 16.8406 15.1406 16.6591 15.3229Z" fill="#39C0C0"/>
</g>
<defs>
<clipPath id="clip0_283_1304">
<rect width="22" height="22" fill="white"/>
</clipPath>
</defs>
</svg>
