<svg width="32" height="32" viewBox="0 0 32 32" fill="none" xmlns="http://www.w3.org/2000/svg">
<path d="M27.0006 22.25C26.1696 22.252 25.4026 22.527 24.7856 22.989L24.7956 22.982L21.4966 19.984C22.3166 18.887 22.8096 17.505 22.8096 16.007C22.8096 14.393 22.2376 12.913 21.2846 11.758L21.2936 11.769L24.9376 8.12598C25.5216 8.51698 26.2396 8.74998 27.0116 8.74998C29.0886 8.74998 30.7716 7.06698 30.7716 4.98998C30.7716 2.91298 29.0886 1.22998 27.0116 1.22998C24.9346 1.22998 23.2516 2.91298 23.2516 4.98998C23.2516 5.76298 23.4846 6.48098 23.8846 7.07798L23.8756 7.06398L20.2326 10.707C19.0876 9.76298 17.6056 9.18998 15.9886 9.18998C15.0516 9.18998 14.1606 9.38198 13.3506 9.72998L13.3946 9.71298L12.3626 7.83898C13.1536 7.15098 13.6506 6.14398 13.6506 5.01998C13.6506 2.95998 11.9806 1.29098 9.92159 1.29098C7.86259 1.29098 6.19259 2.96098 6.19259 5.01998C6.19259 7.07998 7.86259 8.74898 9.92159 8.74898C9.92859 8.74898 9.93659 8.74898 9.94359 8.74898C10.3416 8.74298 10.7206 8.67598 11.0756 8.55498L11.0496 8.56298L12.0866 10.446C10.3296 11.689 9.19659 13.711 9.19259 15.999V16C9.20259 16.697 9.31759 17.364 9.52259 17.99L9.50959 17.943L8.08659 18.546C7.40559 17.575 6.29159 16.949 5.03059 16.949C2.97459 16.949 1.30859 18.615 1.30859 20.671C1.30859 22.727 2.97459 24.393 5.03059 24.393C7.08659 24.393 8.75259 22.727 8.75259 20.671C8.75259 20.407 8.72559 20.15 8.67359 19.902L8.67759 19.926L10.0966 19.324C11.2636 21.417 13.4636 22.809 15.9886 22.809C17.7186 22.809 19.2966 22.155 20.4886 21.081L20.4826 21.086L23.7916 24.093C23.4566 24.637 23.2566 25.294 23.2526 25.999C23.2526 28.07 24.9316 29.75 27.0026 29.75C29.0736 29.75 30.7526 28.071 30.7526 26C30.7526 23.929 29.0736 22.25 27.0026 22.25H27.0006ZM7.69059 4.99998C7.69059 3.75698 8.69759 2.74998 9.94059 2.74998C11.1836 2.74998 12.1906 3.75698 12.1906 4.99998C12.1906 6.24298 11.1836 7.24998 9.94059 7.24998C8.69859 7.24798 7.69259 6.24198 7.69059 4.99998ZM5.00059 22.92C3.75859 22.919 2.75259 21.913 2.75259 20.671C2.75259 19.429 3.75959 18.422 5.00159 18.422C6.24359 18.422 7.24959 19.428 7.25059 20.67C7.24859 21.912 6.24259 22.918 5.00059 22.92ZM27.0006 2.74998C28.2436 2.74998 29.2506 3.75698 29.2506 4.99998C29.2506 6.24298 28.2436 7.24998 27.0006 7.24998C25.7576 7.24998 24.7506 6.24298 24.7506 4.99998C24.7526 3.75798 25.7586 2.75198 27.0006 2.74998ZM10.6906 16C10.6906 16 10.6906 16 10.6906 15.999C10.6906 13.067 13.0676 10.69 15.9996 10.69C18.9316 10.69 21.3086 13.067 21.3086 15.999C21.3086 18.931 18.9316 21.308 15.9996 21.308C13.0686 21.305 10.6946 18.93 10.6906 16ZM27.0006 28.25C25.7576 28.25 24.7506 27.243 24.7506 26C24.7506 24.757 25.7576 23.75 27.0006 23.75C28.2436 23.75 29.2506 24.757 29.2506 26C29.2486 27.242 28.2426 28.248 27.0006 28.25Z" fill="#13A3D9"/>
</svg>
