<svg width="16" height="16" viewBox="0 0 16 16" fill="none" xmlns="http://www.w3.org/2000/svg">
<g clip-path="url(#clip0_22_7880)">
<path d="M-2.54588 17.4439L2.84313 12.0466C1.78072 10.7714 1.14174 9.14186 1.14174 7.36203C1.14174 3.30155 4.47138 0 8.56702 0C12.6627 0 16 3.3054 16 7.36588C16 11.4264 12.6704 14.7279 8.57472 14.7279C6.83484 14.7279 5.23354 14.1308 3.96327 13.133L-1.44498 18.5457C-1.76062 18.8616 -2.23024 18.8616 -2.54588 18.5457C-2.86152 18.2298 -2.86152 17.7598 -2.54588 17.4439ZM14.4218 7.36588C14.4218 4.17605 11.7966 1.58336 8.57472 1.58336C5.35286 1.58336 2.72765 4.17605 2.72765 7.36588C2.72765 10.5557 5.35286 13.1484 8.57472 13.1484C11.7966 13.1484 14.4218 10.5519 14.4218 7.36588Z" fill="#102447"/>
</g>
<defs>
<clipPath id="clip0_22_7880">
<rect width="16" height="16" fill="white" transform="matrix(-1 0 0 1 16 0)"/>
</clipPath>
</defs>
</svg>
