<svg width="38" height="38" viewBox="0 0 38 38" fill="none" xmlns="http://www.w3.org/2000/svg">
<g clip-path="url(#clip0_283_1146)">
<path d="M13.0108 20.2447C13.7416 20.2447 14.3341 19.6523 14.3341 18.9214C14.3341 18.1906 13.7416 17.5981 13.0108 17.5981C12.28 17.5981 11.6875 18.1906 11.6875 18.9214C11.6875 19.6523 12.28 20.2447 13.0108 20.2447Z" fill="#13A3D9"/>
<path d="M13.0108 20.2761C12.2639 20.2761 11.6562 19.6684 11.6562 18.9215C11.6562 18.1745 12.2639 17.5669 13.0108 17.5669C13.7577 17.5669 14.3654 18.1745 14.3654 18.9215C14.3654 19.6684 13.7577 20.2761 13.0108 20.2761ZM13.0108 17.6295C12.2984 17.6295 11.7189 18.2091 11.7189 18.9214C11.7189 19.6338 12.2985 20.2133 13.0108 20.2133C13.7231 20.2133 14.3028 19.6338 14.3028 18.9214C14.3028 18.2091 13.7232 17.6295 13.0108 17.6295Z" fill="#13A3D9"/>
<path d="M18.9991 20.2447C19.7299 20.2447 20.3223 19.6523 20.3223 18.9214C20.3223 18.1906 19.7299 17.5981 18.9991 17.5981C18.2682 17.5981 17.6758 18.1906 17.6758 18.9214C17.6758 19.6523 18.2682 20.2447 18.9991 20.2447Z" fill="#13A3D9"/>
<path d="M18.9992 20.2761C18.2522 20.2761 17.6445 19.6684 17.6445 18.9215C17.6445 18.1745 18.2522 17.5669 18.9992 17.5669C19.7461 17.5669 20.3537 18.1745 20.3537 18.9215C20.3537 19.6684 19.7461 20.2761 18.9992 20.2761ZM18.9992 17.6295C18.2868 17.6295 17.7072 18.2091 17.7072 18.9214C17.7072 19.6338 18.2868 20.2133 18.9992 20.2133C19.7115 20.2133 20.291 19.6338 20.291 18.9214C20.291 18.2091 19.7115 17.6295 18.9992 17.6295Z" fill="#13A3D9"/>
<path d="M24.9834 20.2447C25.7143 20.2447 26.3067 19.6523 26.3067 18.9214C26.3067 18.1906 25.7143 17.5981 24.9834 17.5981C24.2526 17.5981 23.6602 18.1906 23.6602 18.9214C23.6602 19.6523 24.2526 20.2447 24.9834 20.2447Z" fill="#13A3D9"/>
<path d="M24.9835 20.2761C24.2366 20.2761 23.6289 19.6684 23.6289 18.9215C23.6289 18.1745 24.2366 17.5669 24.9835 17.5669C25.7304 17.5669 26.3381 18.1745 26.3381 18.9215C26.3381 19.6684 25.7304 20.2761 24.9835 20.2761ZM24.9835 17.6295C24.2711 17.6295 23.6916 18.2091 23.6916 18.9214C23.6916 19.6338 24.2711 20.2133 24.9835 20.2133C25.6958 20.2133 26.2754 19.6338 26.2754 18.9214C26.2754 18.2091 25.6958 17.6295 24.9835 17.6295Z" fill="#13A3D9"/>
<path d="M9.00336 29.4046C9.69161 30.0928 10.6067 30.4719 11.58 30.4719C12.5533 30.4719 13.4685 30.0928 14.1567 29.4046C14.8449 28.7164 15.224 27.8013 15.224 26.828C15.224 25.8546 14.845 24.9395 14.1567 24.2513L8.8268 18.9214L13.9994 13.7488C15.4202 12.328 15.4202 10.0162 13.9994 8.59539C13.3112 7.90714 12.396 7.52808 11.4227 7.52808C10.4494 7.52808 9.53429 7.90714 8.84604 8.59539L1.09681 16.3447C-0.323936 17.7655 -0.323936 20.0773 1.09681 21.4981L9.00336 29.4046ZM2.9954 18.2433L10.7447 10.494C10.932 10.3068 11.1773 10.2131 11.4228 10.2131C11.6682 10.2131 11.9136 10.3068 12.1009 10.494C12.4754 10.8685 12.4754 11.4757 12.1009 11.8501L5.70771 18.2432C5.33322 18.6177 5.33322 19.2248 5.70771 19.5994L12.2581 26.1498C12.6326 26.5243 12.6326 27.1315 12.2581 27.506C12.0709 27.6932 11.8255 27.7868 11.58 27.7868C11.3346 27.7868 11.0892 27.6932 10.9019 27.506L2.9954 19.5995C2.62091 19.225 2.62091 18.6178 2.9954 18.2433Z" fill="#13A3D9"/>
<path d="M11.5801 30.5033C10.5984 30.5033 9.67542 30.121 8.98128 29.4268L1.07473 21.5203C-0.358242 20.0873 -0.358242 17.7556 1.07473 16.3225L8.82402 8.57317C9.51822 7.87897 10.4412 7.4967 11.4229 7.4967C12.4046 7.4967 13.3276 7.87903 14.0217 8.57317C15.4547 10.0062 15.4547 12.3379 14.0217 13.7709L8.87128 18.9213L14.179 24.2291C14.8732 24.9233 15.2555 25.8463 15.2555 26.828C15.2555 27.8097 14.8732 28.7327 14.179 29.4268C13.4849 30.121 12.5619 30.5033 11.5801 30.5033ZM11.4229 7.55938C10.4579 7.55938 9.55069 7.93519 8.86833 8.61748L1.11904 16.3668C-0.289486 17.7754 -0.289486 20.0674 1.11904 21.476L9.02559 29.3824C9.70794 30.0648 10.6151 30.4406 11.5801 30.4406C12.5452 30.4406 13.4524 30.0648 14.1347 29.3824C14.817 28.7001 15.1928 27.7929 15.1928 26.8279C15.1928 25.863 14.817 24.9557 14.1347 24.2734L8.78265 18.9213L13.9774 13.7265C15.386 12.318 15.386 10.026 13.9774 8.61742C13.2951 7.93519 12.3879 7.55938 11.4229 7.55938ZM11.5801 27.8182C11.3157 27.8182 11.067 27.7151 10.8799 27.5281L2.97332 19.6216C2.78629 19.4346 2.68325 19.1859 2.68325 18.9214C2.68325 18.6568 2.78629 18.4082 2.97332 18.2212L10.7226 10.4719C10.9096 10.2849 11.1583 10.1819 11.4228 10.1819C11.6873 10.1819 11.936 10.2849 12.123 10.4719C12.3101 10.6589 12.4131 10.9076 12.4131 11.1721C12.4131 11.4366 12.3101 11.6853 12.123 11.8723L5.73001 18.2654C5.3683 18.6271 5.3683 19.2156 5.73001 19.5773L12.2804 26.1277C12.4675 26.3148 12.5705 26.5634 12.5705 26.8279C12.5705 27.0925 12.4675 27.3411 12.2804 27.5282C12.0934 27.7152 11.8446 27.8182 11.5801 27.8182ZM11.4229 10.2445C11.1751 10.2445 10.9422 10.341 10.767 10.5161L3.01769 18.2654C2.84251 18.4406 2.74599 18.6736 2.74599 18.9213C2.74599 19.1691 2.84251 19.4021 3.01769 19.5772L10.9242 27.4837C11.0995 27.6589 11.3325 27.7554 11.5802 27.7554C11.828 27.7554 12.0609 27.6589 12.2361 27.4837C12.4113 27.3085 12.5078 27.0755 12.5078 26.8278C12.5078 26.58 12.4113 26.347 12.2361 26.1719L5.68569 19.6216C5.29961 19.2355 5.29961 18.6072 5.68569 18.2211L12.0788 11.828C12.254 11.6528 12.3505 11.4199 12.3505 11.1721C12.3505 10.9243 12.254 10.6914 12.0788 10.5162C11.9036 10.341 11.6707 10.2445 11.4229 10.2445Z" fill="#13A3D9"/>
<path d="M29.1538 8.59551C28.4656 7.90726 27.5504 7.5282 26.5771 7.5282C25.6038 7.5282 24.6887 7.9072 24.0005 8.59551C22.5797 10.0163 22.5797 12.3281 24.0005 13.7489L29.173 18.9215L23.8431 24.2514C22.4224 25.6722 22.4224 27.984 23.8431 29.4048C24.5314 30.093 25.4465 30.4721 26.4198 30.4721C27.3931 30.4721 28.3083 30.093 28.9965 29.4048L36.9031 21.4983C38.3239 20.0775 38.3239 17.7657 36.9031 16.3449L29.1538 8.59551ZM35.0045 19.5996L27.0979 27.5061C26.9106 27.6933 26.6653 27.7869 26.4198 27.7869C26.1745 27.7869 25.929 27.6933 25.7418 27.5061C25.3672 27.1316 25.3672 26.5244 25.7418 26.1499L32.2922 19.5995C32.6667 19.225 32.6667 18.6179 32.2922 18.2434L25.899 11.8504C25.5245 11.4759 25.5245 10.8687 25.899 10.4942C26.0862 10.307 26.3316 10.2134 26.5771 10.2134C26.8225 10.2134 27.0679 10.307 27.2551 10.4942L35.0044 18.2435C35.379 18.6179 35.379 19.2251 35.0045 19.5996Z" fill="#13A3D9"/>
<path d="M26.4199 30.5034C25.4382 30.5034 24.5153 30.1211 23.8211 29.4269C22.3881 27.9938 22.3881 25.6622 23.8211 24.2291L29.1288 18.9214L23.9784 13.771C22.5454 12.338 22.5454 10.0063 23.9784 8.57329C24.6725 7.87909 25.5956 7.49683 26.5773 7.49683C27.559 7.49683 28.482 7.87915 29.1761 8.57329L36.9254 16.3226C38.3584 17.7556 38.3584 20.0874 36.9254 21.5203L29.0188 29.4269C28.3246 30.1211 27.4016 30.5034 26.4199 30.5034ZM26.5773 7.5595C25.6123 7.5595 24.7051 7.93531 24.0227 8.6176C22.6141 10.0262 22.6141 12.3181 24.0227 13.7267L29.2174 18.9214L23.8654 24.2735C22.4569 25.682 22.4569 27.974 23.8654 29.3826C24.5477 30.0649 25.455 30.4407 26.4199 30.4407C27.3849 30.4407 28.2921 30.0649 28.9745 29.3826L36.881 21.4761C38.2896 20.0675 38.2896 17.7755 36.881 16.367L29.1318 8.61767C28.4495 7.93531 27.5422 7.5595 26.5773 7.5595ZM26.4199 27.8183C26.1554 27.8183 25.9067 27.7153 25.7197 27.5283C25.5327 27.3413 25.4297 27.0926 25.4297 26.828C25.4297 26.5635 25.5327 26.3148 25.7197 26.1278L32.2701 19.5774C32.6318 19.2157 32.6318 18.6272 32.2701 18.2656L25.877 11.8724C25.4909 11.4863 25.4909 10.8581 25.877 10.472C26.064 10.285 26.3127 10.1819 26.5773 10.1819C26.8417 10.1819 27.0904 10.285 27.2775 10.472L35.0268 18.2213C35.2138 18.4083 35.3168 18.657 35.3168 18.9215C35.3168 19.186 35.2138 19.4347 35.0268 19.6217L27.1202 27.5283C26.9331 27.7153 26.6845 27.8183 26.4199 27.8183ZM26.5773 10.2446C26.3295 10.2446 26.0965 10.3411 25.9213 10.5163C25.5596 10.878 25.5596 11.4665 25.9213 11.8281L32.3145 18.2212C32.7005 18.6074 32.7005 19.2356 32.3145 19.6217L25.764 26.1721C25.5888 26.3473 25.4923 26.5802 25.4923 26.828C25.4923 27.0758 25.5888 27.3087 25.764 27.484C25.9392 27.6592 26.1722 27.7556 26.4199 27.7556C26.6677 27.7556 26.9007 27.6592 27.0759 27.484L34.9824 19.5774C35.1576 19.4022 35.2541 19.1693 35.2541 18.9215C35.2541 18.6738 35.1576 18.4409 34.9824 18.2657L27.2331 10.5164C27.0579 10.3411 26.825 10.2446 26.5773 10.2446Z" fill="#13A3D9"/>
</g>
<defs>
<clipPath id="clip0_283_1146">
<rect width="38" height="38" fill="white"/>
</clipPath>
</defs>
</svg>
