<svg width="18" height="18" viewBox="0 0 18 18" fill="none" xmlns="http://www.w3.org/2000/svg">
<path d="M12.1798 10.5525C12.1798 10.9949 12.0917 11.4329 11.9204 11.8409C11.7492 12.2488 11.4983 12.6185 11.1825 12.9283C10.8666 13.2381 10.4922 13.4819 10.081 13.6452C9.66985 13.8086 9.23023 13.8883 8.78788 13.8797C7.90256 13.8446 7.06583 13.4656 6.45554 12.8233C5.84526 12.1809 5.50954 11.3259 5.51976 10.44V5.80498C5.51962 5.7984 5.5218 5.79198 5.52592 5.78684C5.53003 5.7817 5.53581 5.77817 5.54226 5.77686C6.66719 5.60722 7.80224 5.51326 8.93976 5.49561C10.0297 5.5128 11.1171 5.60678 12.1938 5.77686C12.2 5.77821 12.2055 5.78186 12.2092 5.78707C12.2128 5.79228 12.2144 5.79868 12.2135 5.80498L12.1798 10.5525Z" stroke="#13A3D9"/>
<path d="M5.52093 7.31251L2.53125 5.75719C2.52649 5.75489 2.52248 5.7513 2.51968 5.74682C2.51687 5.74234 2.51538 5.73717 2.51538 5.73188C2.51538 5.7266 2.51687 5.72142 2.51968 5.71695C2.52248 5.71247 2.52649 5.70887 2.53125 5.70657L8.85656 2.49188H8.88187L15.1875 5.67282C15.1923 5.67512 15.1963 5.67872 15.1991 5.6832C15.2019 5.68767 15.2034 5.69285 15.2034 5.69813C15.2034 5.70342 15.2019 5.70859 15.1991 5.71307C15.1963 5.71755 15.1923 5.72114 15.1875 5.72344L12.2147 7.31251" stroke="#13A3D9"/>
<path d="M5.52203 9.05347H4.97922C4.97922 9.05347 4.15234 9.05347 4.15234 10.3247C4.15234 11.4975 4.97641 11.4975 4.97641 11.4975L5.68234 11.4835" stroke="#13A3D9"/>
<path d="M12.1789 9.1969H12.7217C12.7217 9.1969 13.5655 9.1969 13.5655 10.471C13.5655 11.6438 12.7386 11.6438 12.7386 11.6438H11.9961" stroke="#13A3D9"/>
<path d="M14.8281 12.6675V5.91467" stroke="#13A3D9"/>
<path d="M14.8294 13.9697C15.1882 13.9697 15.4791 13.6788 15.4791 13.32C15.4791 12.9612 15.1882 12.6703 14.8294 12.6703C14.4706 12.6703 14.1797 12.9612 14.1797 13.32C14.1797 13.6788 14.4706 13.9697 14.8294 13.9697Z" stroke="#13A3D9"/>
<path d="M10.6197 13.3678V15.5109H7.28125V13.4859" stroke="#13A3D9"/>
<path d="M12.2133 8.47403C11.1359 8.27961 10.0428 8.18545 8.94797 8.19278C7.79857 8.16999 6.64984 8.26423 5.51953 8.47403" stroke="#13A3D9"/>
</svg>
