<svg width="32" height="32" viewBox="0 0 32 32" fill="none" xmlns="http://www.w3.org/2000/svg">
<g clip-path="url(#clip0_283_2182)">
<path fill-rule="evenodd" clip-rule="evenodd" d="M23.9928 18.8001C25.564 17.2288 25.8039 15.0795 23.9875 13.1952L11.6293 0.836779C11.0898 0.30667 10.3627 0.0111106 9.60637 0.014432C8.85002 0.0177533 8.12559 0.319686 7.59077 0.854514C7.05594 1.38934 6.75401 2.11377 6.75068 2.87012C6.74736 3.62647 7.04292 4.35353 7.57303 4.89303L18.6797 16.0001L7.57284 27.107C7.30266 27.3724 7.08773 27.6888 6.94047 28.0378C6.79321 28.3868 6.71653 28.7615 6.71487 29.1403C6.71321 29.5191 6.78659 29.8945 6.93078 30.2447C7.07497 30.595 7.28711 30.9133 7.55495 31.1811C7.8228 31.449 8.14105 31.6611 8.49132 31.8053C8.8416 31.9495 9.21696 32.0229 9.59575 32.0212C9.97454 32.0195 10.3492 31.9429 10.6982 31.7956C11.0472 31.6483 11.3636 31.4334 11.6291 31.1632L23.9928 18.8001Z" fill="#BABBBC"/>
</g>
<defs>
<clipPath id="clip0_283_2182">
<rect width="32" height="32" fill="white"/>
</clipPath>
</defs>
</svg>
