<svg width="262" height="28" viewBox="0 0 262 28" fill="none" xmlns="http://www.w3.org/2000/svg">
<path d="M261.302 13.9844C261.302 6.35553 255.118 0.171143 247.489 0.171143C239.86 0.171143 233.676 6.35553 233.676 13.9844C233.676 20.0647 237.605 25.2275 243.062 27.0728C244.226 27.4662 245.331 26.5197 245.331 25.2915V19.7309C245.331 18.7624 244.546 17.9773 243.577 17.9773C242.609 17.9773 241.823 17.1921 241.823 16.2236V15.738C241.823 14.7695 242.609 13.9844 243.577 13.9844C244.546 13.9844 245.331 13.1992 245.331 12.2307V10.9411C245.331 7.4792 247.393 5.56693 250.548 5.56693C251.08 5.56693 251.62 5.60033 252.097 5.64363C252.992 5.72485 253.64 6.49388 253.64 7.39244V7.49431C253.64 8.45626 252.86 9.23607 251.898 9.23607C250.183 9.23607 249.647 10.3009 249.647 11.3944V12.2149C249.647 13.1922 250.44 13.9844 251.417 13.9844C252.501 13.9844 253.33 14.9505 253.166 16.0221L253.091 16.5078C252.962 17.3531 252.234 17.9773 251.379 17.9773C250.423 17.9773 249.647 18.7527 249.647 19.7092V25.2915C249.647 26.5197 250.752 27.4662 251.916 27.0728C257.373 25.2275 261.302 20.0647 261.302 13.9844Z" fill="#FEFEFE"/>
<path d="M58.7039 2.6586C62.3946 2.6586 62.8316 2.67479 64.2831 2.73954C65.632 2.79889 66.3605 3.02552 66.8461 3.21437C67.4882 3.46257 67.9522 3.76474 68.4325 4.24496C68.9181 4.73059 69.2149 5.18923 69.4631 5.83133C69.6519 6.31695 69.8785 7.05078 69.9379 8.39433C70.0026 9.85119 70.0188 10.2882 70.0188 13.9736C70.0188 17.6643 70.0026 18.1014 69.9379 19.5528C69.8785 20.9018 69.6519 21.6302 69.4631 22.1158C69.2149 22.7579 68.9127 23.222 68.4325 23.7022C67.9468 24.1878 67.4882 24.4846 66.8461 24.7328C66.3605 24.9216 65.6267 25.1483 64.2831 25.2076C62.8262 25.2724 62.3892 25.2885 58.7039 25.2885C55.0131 25.2885 54.5761 25.2724 53.1246 25.2076C51.7757 25.1483 51.0472 24.9216 50.5616 24.7328C49.9195 24.4846 49.4555 24.1824 48.9752 23.7022C48.4896 23.2166 48.1928 22.7579 47.9446 22.1158C47.7558 21.6302 47.5292 20.8964 47.4698 19.5528C47.4051 18.096 47.3889 17.6589 47.3889 13.9736C47.3889 10.2829 47.4051 9.84579 47.4698 8.39433C47.5292 7.04538 47.7558 6.31695 47.9446 5.83133C48.1928 5.18923 48.495 4.72519 48.9752 4.24496C49.4609 3.75934 49.9195 3.46257 50.5616 3.21437C51.0472 3.02552 51.7811 2.79889 53.1246 2.73954C54.5761 2.67479 55.0131 2.6586 58.7039 2.6586ZM58.7039 0.171143C54.9538 0.171143 54.4843 0.18733 53.0113 0.252079C51.5436 0.316829 50.5346 0.554244 49.6605 0.894178C48.7486 1.2503 47.977 1.71973 47.2108 2.49133C46.4392 3.25753 45.9698 4.02913 45.6137 4.93563C45.2737 5.81514 45.0363 6.81876 44.9716 8.28641C44.9068 9.76486 44.8906 10.2343 44.8906 13.9844C44.8906 17.7344 44.9068 18.2039 44.9716 19.6769C45.0363 21.1446 45.2737 22.1536 45.6137 23.0277C45.9698 23.9396 46.4392 24.7112 47.2108 25.4774C47.977 26.2436 48.7486 26.7184 49.6551 27.0692C50.5346 27.4091 51.5382 27.6465 53.0059 27.7113C54.4789 27.776 54.9484 27.7922 58.6985 27.7922C62.4485 27.7922 62.918 27.776 64.391 27.7113C65.8587 27.6465 66.8677 27.4091 67.7418 27.0692C68.6483 26.7184 69.4199 26.2436 70.1861 25.4774C70.9523 24.7112 71.4271 23.9396 71.7779 23.0331C72.1178 22.1536 72.3552 21.15 72.42 19.6823C72.4847 18.2093 72.5009 17.7398 72.5009 13.9898C72.5009 10.2397 72.4847 9.77025 72.42 8.2972C72.3552 6.82955 72.1178 5.82054 71.7779 4.94642C71.4379 4.02913 70.9685 3.25753 70.1969 2.49133C69.4307 1.72513 68.6591 1.2503 67.7526 0.899574C66.8731 0.559639 65.8695 0.322225 64.4018 0.257475C62.9234 0.18733 62.4539 0.171143 58.7039 0.171143Z" fill="#FEFEFE"/>
<path d="M58.7048 6.88916C54.7875 6.88916 51.6094 10.0673 51.6094 13.9846C51.6094 17.902 54.7875 21.0801 58.7048 21.0801C62.6222 21.0801 65.8003 17.902 65.8003 13.9846C65.8003 10.0673 62.6222 6.88916 58.7048 6.88916ZM58.7048 18.5872C56.1634 18.5872 54.1022 16.526 54.1022 13.9846C54.1022 11.4432 56.1634 9.38202 58.7048 9.38202C61.2463 9.38202 63.3074 11.4432 63.3074 13.9846C63.3074 16.526 61.2463 18.5872 58.7048 18.5872Z" fill="#FEFEFE"/>
<path d="M67.7388 6.60744C67.7388 7.52472 66.9942 8.26395 66.0823 8.26395C65.165 8.26395 64.4258 7.51933 64.4258 6.60744C64.4258 5.69015 65.1704 4.95093 66.0823 4.95093C66.9942 4.95093 67.7388 5.69555 67.7388 6.60744Z" fill="#FEFEFE"/>
<path d="M147.326 8.70703H142.515C142.302 8.70703 142.129 8.8801 142.129 9.09352V24.5477C142.129 24.7612 142.302 24.9342 142.515 24.9342H147.326C147.539 24.9342 147.712 24.7612 147.712 24.5477V9.09352C147.712 8.8801 147.539 8.70703 147.326 8.70703Z" fill="#FEFEFE"/>
<path d="M144.924 1.02515C143.174 1.02515 141.75 2.4476 141.75 4.19601C141.75 5.9452 143.174 7.36819 144.924 7.36819C146.673 7.36819 148.096 5.94513 148.096 4.19601C148.096 2.4476 146.673 1.02515 144.924 1.02515Z" fill="#FEFEFE"/>
<path d="M159.564 8.32349C158.11 8.32349 156.941 8.79369 156.083 9.42852C155.796 9.64036 155.337 9.45038 155.337 9.09408C155.337 8.88065 155.164 8.70758 154.95 8.70758H150.344C150.13 8.70758 149.957 8.88065 149.957 9.09408V24.5482C149.957 24.7617 150.13 24.9347 150.344 24.9347H155.144C155.357 24.9347 155.53 24.7617 155.53 24.5482V16.902C155.53 14.3254 156.23 13.3216 158.026 13.3216C159.982 13.3216 160.138 14.9308 160.138 17.0346V24.5483C160.138 24.7618 160.311 24.9348 160.524 24.9348H165.326C165.539 24.9348 165.712 24.7618 165.712 24.5483V16.0714C165.712 12.2401 164.982 8.32349 159.564 8.32349Z" fill="#FEFEFE"/>
<path d="M8.691 24.92C19.1135 24.92 24.8158 16.2829 24.8158 8.79519C24.8158 8.73507 24.8155 8.67461 24.8148 8.61398C24.811 8.26892 24.97 7.94216 25.2396 7.72676C25.7869 7.28947 26.2926 6.80352 26.7508 6.27519C27.0253 5.95863 26.6735 5.50813 26.2719 5.62767C25.8405 5.75609 25.5511 5.10511 25.8377 4.75799C25.9791 4.58685 26.1103 4.40751 26.2309 4.22085C26.5115 3.78625 26.0181 3.35116 25.5425 3.55483C25.0169 3.77993 24.4748 3.9653 23.9207 4.1092C23.5173 4.21395 23.1003 4.06654 22.7809 3.79879C22.0032 3.1468 21.0614 2.71251 20.0518 2.54723C18.821 2.34571 17.558 2.55529 16.4582 3.14355C15.3583 3.73182 14.4829 4.66601 13.9673 5.80169C13.8204 6.12529 13.705 6.4601 13.6216 6.80158C13.3066 8.09166 12.2802 9.36008 10.9827 9.07716C9.65135 8.78685 8.35872 8.32791 7.13681 7.70883C5.98893 7.12725 4.91809 6.41176 3.94564 5.57957C2.88249 4.66975 1.1817 4.87096 1.16054 6.27011C1.15363 6.72661 1.2018 7.18572 1.30654 7.63745C1.49454 8.4483 1.85667 9.20027 2.35977 9.84538C2.68005 10.2561 2.39955 10.9087 1.91043 10.7299C1.65779 10.6375 1.41137 10.527 1.17312 10.399C1.14537 10.384 1.11153 10.404 1.11153 10.4355C1.11073 11.7446 1.56331 13.0137 2.39235 14.0268C2.82864 14.56 3.35502 15.0051 3.94289 15.3447C4.34176 15.5752 4.2952 16.2104 3.83537 16.1828C3.50367 16.1629 3.23135 16.4764 3.37327 16.7769C3.76957 17.6158 4.3672 18.3486 5.11754 18.907C6.06489 19.6121 6.44336 21.3319 5.33654 21.7437C4.07118 22.2146 2.72325 22.4595 1.35434 22.4573C1.0245 22.4568 0.880698 22.9042 1.17235 23.0583C3.48336 24.2791 6.06377 24.9213 8.691 24.92Z" fill="#FEFEFE"/>
<path d="M213.834 8.40979C213.832 8.39759 213.831 8.38774 213.829 8.37559C213.8 8.18313 213.515 6.44145 212.731 5.65191C211.679 4.55117 210.503 4.54577 209.963 4.48102C206.1 4.20044 200.299 4.20044 200.299 4.20044H200.288C200.288 4.20044 200.288 4.20044 200.288 4.20044C200.288 4.20044 194.488 4.20044 190.624 4.48102C190.085 4.54577 188.909 4.55117 187.856 5.65191C187.064 6.44971 186.787 8.21966 186.763 8.38112C186.761 8.38988 186.761 8.39594 186.76 8.40473C186.738 8.58165 186.48 10.7263 186.48 12.8661V14.9596C186.48 17.0808 186.729 19.2068 186.754 19.4159C186.755 19.4281 186.756 19.438 186.758 19.4501C186.788 19.6426 187.072 21.3843 187.851 22.1738C188.903 23.2746 190.285 23.2368 190.9 23.3555C193.076 23.5625 200.059 23.6285 200.288 23.6306C200.295 23.6307 200.294 23.6307 200.301 23.6307C200.528 23.6301 206.178 23.6143 209.963 23.3447C210.503 23.28 211.679 23.2746 212.731 22.1738C213.516 21.3838 213.8 19.6405 213.829 19.4498C213.831 19.4378 213.832 19.4283 213.834 19.4162C213.859 19.2091 214.107 17.0868 214.107 14.9596V12.8661C214.107 10.7449 213.859 8.61895 213.834 8.40979ZM200.36 15.987C199.029 16.6772 197.439 15.711 197.439 14.2114V13.0368C197.439 11.5347 199.033 10.5687 200.365 11.2638L201.494 11.8532C202.929 12.6023 202.926 14.6567 201.489 15.4017L200.36 15.987Z" fill="#FEFEFE"/>
<path d="M120.19 20.0652C120 19.5432 119.633 19.261 119.217 19.0352C119.139 18.9929 119.069 18.9506 119.005 18.9223C118.878 18.8589 118.751 18.7954 118.624 18.7319C117.326 18.0405 116.31 17.1799 115.612 16.1499C115.414 15.8606 115.238 15.5502 115.097 15.2328C115.033 15.0635 115.041 14.9647 115.083 14.873C115.125 14.8024 115.182 14.746 115.252 14.6966C115.478 14.5485 115.704 14.4003 115.859 14.3016C116.134 14.1181 116.36 13.9771 116.501 13.8783C117.03 13.5044 117.404 13.1093 117.637 12.6649C117.968 12.0441 118.011 11.3175 117.757 10.6614C117.404 9.73017 116.529 9.15874 115.464 9.15874C115.238 9.15874 115.019 9.1799 114.794 9.22929C114.705 9.25153 114.618 9.18197 114.619 9.09025C114.621 8.50978 114.605 7.90368 114.554 7.30337C114.356 4.9824 113.538 3.769 112.691 2.80252C112.148 2.19582 111.513 1.68083 110.801 1.27872C109.517 0.545038 108.056 0.171143 106.469 0.171143C104.882 0.171143 103.429 0.545038 102.145 1.27872C101.432 1.68083 100.797 2.19582 100.254 2.80252C99.4074 3.769 98.5962 4.98945 98.3916 7.30337C98.3405 7.90368 98.3241 8.50977 98.3267 9.09024C98.3271 9.18197 98.2413 9.24918 98.1517 9.22929C97.933 9.1799 97.7073 9.15874 97.4886 9.15874C96.4233 9.15874 95.5486 9.73722 95.1958 10.6614C94.9419 11.3175 94.9842 12.0441 95.3158 12.6649C95.5486 13.1093 95.9225 13.5044 96.4516 13.8783C96.5927 13.9771 96.8113 14.1181 97.0935 14.3016C97.2417 14.4003 97.4604 14.5414 97.6791 14.6825C97.7567 14.7319 97.8202 14.7954 97.8695 14.873C97.9119 14.9647 97.9189 15.0635 97.8484 15.2469C97.7073 15.5573 97.538 15.8606 97.3404 16.1428C96.6561 17.1446 95.6685 17.9982 94.4128 18.6825C93.7496 19.0352 93.0583 19.268 92.762 20.0652C92.5433 20.6648 92.6844 21.3421 93.2417 21.9206C93.4463 22.1322 93.6861 22.3156 93.9472 22.4567C94.4904 22.753 95.0689 22.9858 95.6755 23.1481C95.8025 23.1833 95.9154 23.2327 96.0212 23.3033C96.2258 23.4796 96.1976 23.7477 96.4657 24.1428C96.5997 24.3474 96.7761 24.5237 96.9736 24.6648C97.545 25.0599 98.187 25.081 98.8642 25.1093C99.478 25.1304 100.169 25.1586 100.967 25.4197C101.298 25.5255 101.637 25.7371 102.032 25.984C102.984 26.5696 104.282 27.3667 106.462 27.3667C108.642 27.3667 109.947 26.5625 110.906 25.977C111.302 25.7371 111.64 25.5255 111.958 25.4197C112.748 25.1586 113.446 25.1304 114.06 25.1093C114.737 25.081 115.379 25.0599 115.951 24.6648C116.19 24.4955 116.388 24.2839 116.529 24.0299C116.727 23.6983 116.72 23.4655 116.903 23.3033C117.002 23.2327 117.115 23.1833 117.227 23.1551C117.834 22.9929 118.427 22.7601 118.977 22.4567C119.252 22.3086 119.506 22.111 119.718 21.8782L119.725 21.8712C120.275 21.3068 120.409 20.6437 120.19 20.0652ZM118.257 21.1022C117.079 21.7513 116.289 21.6807 115.682 22.0758C115.16 22.4073 115.471 23.1269 115.097 23.3879C114.631 23.7054 113.263 23.3668 111.499 23.9523C110.039 24.432 109.115 25.8218 106.49 25.8218C103.866 25.8218 102.963 24.4391 101.482 23.9523C99.7179 23.3668 98.3493 23.7124 97.8836 23.3879C97.5098 23.1269 97.8131 22.4073 97.2981 22.0758C96.6844 21.6807 95.9013 21.7513 94.7232 21.1022C93.9683 20.686 94.3987 20.432 94.6456 20.3121C98.9207 18.2451 99.605 15.0494 99.6332 14.8095C99.6685 14.5203 99.7108 14.2945 99.3933 14.0053C99.09 13.7231 97.7355 12.8836 97.3546 12.6226C96.7337 12.1852 96.4586 11.7548 96.6632 11.2187C96.8043 10.8519 97.15 10.7108 97.5098 10.7108C97.6226 10.7108 97.7355 10.7249 97.8484 10.746C98.5327 10.8942 99.1958 11.2328 99.5768 11.3316C99.6261 11.3457 99.6685 11.3527 99.7179 11.3527C99.9224 11.3527 99.993 11.2469 99.9789 11.0141C99.9365 10.2663 99.8307 8.81306 99.9507 7.45152C100.113 5.58204 100.713 4.65083 101.432 3.8325C101.778 3.43744 103.393 1.73022 106.49 1.73022C109.587 1.73022 111.203 3.43038 111.548 3.82544C112.268 4.64378 112.868 5.57499 113.03 7.44447C113.15 8.80601 113.044 10.2593 112.995 11.0071C112.981 11.254 113.051 11.3457 113.256 11.3457C113.305 11.3457 113.347 11.3386 113.397 11.3245C113.778 11.2328 114.441 10.8871 115.125 10.739C115.238 10.7108 115.351 10.7037 115.464 10.7037C115.824 10.7037 116.169 10.8448 116.31 11.2116C116.515 11.7478 116.24 12.1781 115.619 12.6155C115.245 12.8765 113.891 13.716 113.58 13.9982C113.263 14.2875 113.305 14.5132 113.34 14.8024C113.369 15.0423 114.053 18.2381 118.328 20.3051C118.582 20.425 119.005 20.686 118.257 21.1022Z" fill="#FEFEFE"/>
</svg>
