<svg width="86" height="14" viewBox="0 0 86 14" fill="none" xmlns="http://www.w3.org/2000/svg">
<g clip-path="url(#clip0_283_2114)">
<path d="M13.9635 5.37035C13.8719 5.08687 13.6204 4.88552 13.3229 4.85871L9.28216 4.49181L7.68432 0.751919C7.56651 0.477834 7.29819 0.300415 7.00007 0.300415C6.70195 0.300415 6.43364 0.477834 6.31582 0.75256L4.71798 4.49181L0.67656 4.85871C0.379616 4.88617 0.128816 5.08687 0.0366355 5.37035C-0.0555452 5.65384 0.0295858 5.96478 0.254216 6.16078L3.30857 8.83947L2.40791 12.8069C2.34201 13.0986 2.45523 13.4001 2.69727 13.5751C2.82737 13.6691 2.97958 13.7169 3.13307 13.7169C3.26542 13.7169 3.39669 13.6813 3.51451 13.6108L7.00007 11.5276L10.4844 13.6108C10.7393 13.7641 11.0607 13.7501 11.3022 13.5751C11.5444 13.3996 11.6575 13.0979 11.5916 12.8069L10.6909 8.83947L13.7453 6.16131C13.9699 5.96478 14.0557 5.65437 13.9635 5.37035Z" fill="#FFC107"/>
</g>
<g clip-path="url(#clip1_283_2114)">
<path d="M31.9635 5.37035C31.8719 5.08687 31.6204 4.88552 31.3229 4.85871L27.2822 4.49181L25.6843 0.751919C25.5665 0.477834 25.2982 0.300415 25.0001 0.300415C24.702 0.300415 24.4336 0.477834 24.3158 0.75256L22.718 4.49181L18.6766 4.85871C18.3796 4.88617 18.1288 5.08687 18.0366 5.37035C17.9445 5.65384 18.0296 5.96478 18.2542 6.16078L21.3086 8.83947L20.4079 12.8069C20.342 13.0986 20.4552 13.4001 20.6973 13.5751C20.8274 13.6691 20.9796 13.7169 21.1331 13.7169C21.2654 13.7169 21.3967 13.6813 21.5145 13.6108L25.0001 11.5276L28.4844 13.6108C28.7393 13.7641 29.0607 13.7501 29.3022 13.5751C29.5444 13.3996 29.6575 13.0979 29.5916 12.8069L28.6909 8.83947L31.7453 6.16131C31.9699 5.96478 32.0557 5.65437 31.9635 5.37035Z" fill="#AAA"/>
</g>
<g clip-path="url(#clip2_283_2114)">
<path d="M49.9635 5.37035C49.8719 5.08687 49.6204 4.88552 49.3229 4.85871L45.2822 4.49181L43.6843 0.751919C43.5665 0.477834 43.2982 0.300415 43.0001 0.300415C42.702 0.300415 42.4336 0.477834 42.3158 0.75256L40.718 4.49181L36.6766 4.85871C36.3796 4.88617 36.1288 5.08687 36.0366 5.37035C35.9445 5.65384 36.0296 5.96478 36.2542 6.16078L39.3086 8.83947L38.4079 12.8069C38.342 13.0986 38.4552 13.4001 38.6973 13.5751C38.8274 13.6691 38.9796 13.7169 39.1331 13.7169C39.2654 13.7169 39.3967 13.6813 39.5145 13.6108L43.0001 11.5276L46.4844 13.6108C46.7393 13.7641 47.0607 13.7501 47.3022 13.5751C47.5444 13.3996 47.6575 13.0979 47.5916 12.8069L46.6909 8.83947L49.7453 6.16131C49.9699 5.96478 50.0557 5.65437 49.9635 5.37035Z" fill="#AAA"/>
</g>
<g clip-path="url(#clip3_283_2114)">
<path d="M67.9635 5.37035C67.8719 5.08687 67.6204 4.88552 67.3229 4.85871L63.2822 4.49181L61.6843 0.751919C61.5665 0.477834 61.2982 0.300415 61.0001 0.300415C60.702 0.300415 60.4336 0.477834 60.3158 0.75256L58.718 4.49181L54.6766 4.85871C54.3796 4.88617 54.1288 5.08687 54.0366 5.37035C53.9445 5.65384 54.0296 5.96478 54.2542 6.16078L57.3086 8.83947L56.4079 12.8069C56.342 13.0986 56.4552 13.4001 56.6973 13.5751C56.8274 13.6691 56.9796 13.7169 57.1331 13.7169C57.2654 13.7169 57.3967 13.6813 57.5145 13.6108L61.0001 11.5276L64.4844 13.6108C64.7393 13.7641 65.0607 13.7501 65.3022 13.5751C65.5444 13.3996 65.6575 13.0979 65.5916 12.8069L64.6909 8.83947L67.7453 6.16131C67.9699 5.96478 68.0557 5.65437 67.9635 5.37035Z" fill="#AAA"/>
</g>
<g clip-path="url(#clip4_283_2114)">
<path d="M85.9635 5.37035C85.8719 5.08687 85.6204 4.88552 85.3229 4.85871L81.2822 4.49181L79.6843 0.751919C79.5665 0.477834 79.2982 0.300415 79.0001 0.300415C78.702 0.300415 78.4336 0.477834 78.3158 0.75256L76.718 4.49181L72.6766 4.85871C72.3796 4.88617 72.1288 5.08687 72.0366 5.37035C71.9445 5.65384 72.0296 5.96478 72.2542 6.16078L75.3086 8.83947L74.4079 12.8069C74.342 13.0986 74.4552 13.4001 74.6973 13.5751C74.8274 13.6691 74.9796 13.7169 75.1331 13.7169C75.2654 13.7169 75.3967 13.6813 75.5145 13.6108L79.0001 11.5276L82.4844 13.6108C82.7393 13.7641 83.0607 13.7501 83.3022 13.5751C83.5444 13.3996 83.6575 13.0979 83.5916 12.8069L82.6909 8.83947L85.7453 6.16131C85.9699 5.96478 86.0557 5.65437 85.9635 5.37035Z" fill="#AAA"/>
</g>
<defs>
<clipPath id="clip0_283_2114">
<rect width="14" height="14" fill="white"/>
</clipPath>
<clipPath id="clip1_283_2114">
<rect width="14" height="14" fill="white" transform="translate(18)"/>
</clipPath>
<clipPath id="clip2_283_2114">
<rect width="14" height="14" fill="white" transform="translate(36)"/>
</clipPath>
<clipPath id="clip3_283_2114">
<rect width="14" height="14" fill="white" transform="translate(54)"/>
</clipPath>
<clipPath id="clip4_283_2114">
<rect width="14" height="14" fill="white" transform="translate(72)"/>
</clipPath>
</defs>
</svg>
